<svg width="780" height="580" viewBox="0 0 780 580" fill="none" xmlns="http://www.w3.org/2000/svg">
<rect x="67" y="212" width="317" height="317" rx="158.5" fill="#F0E9DA"/>
<path d="M654.107 394.993C655.433 394.106 654.991 391.887 656.317 391C659.412 391.444 660.738 394.55 662.727 396.546C666.485 400.984 669.579 405.643 672.895 410.301C673.779 411.411 673.779 412.52 674 413.629C673.337 413.851 671.79 414.295 671.126 414.517C665.159 420.729 659.412 427.606 652.56 432.931C646.371 437.812 640.403 443.136 633.772 447.573C622.721 454.673 611.669 461.772 599.512 467.097C581.388 475.305 563.263 483.514 544.696 490.613C527.235 496.603 509.773 503.703 491.869 508.362C482.365 510.58 472.64 512.799 462.914 513.908C460.925 514.13 458.715 513.908 456.725 513.686C451.642 505.256 450.094 495.494 447.663 486.176C447.221 483.958 447.221 481.739 447 479.742C449.652 480.038 452.305 480.112 454.957 479.964C476.176 478.855 496.511 471.977 516.846 466.653C528.561 463.325 539.833 458.444 550.885 453.563C567.831 445.281 584.703 436.776 601.501 428.05C613.216 421.838 624.71 414.96 636.425 408.748C643.277 405.421 648.581 400.096 654.107 394.993Z" fill="#333F72"/>
<path d="M375.828 227.55C391.618 219.851 412.3 225.13 422.975 238.99C428.09 245.809 429.202 255.269 426.756 263.408C424.087 273.968 418.75 284.967 408.297 290.027C397.845 294.647 385.391 295.527 374.716 291.127C367.377 288.047 362.261 281.228 358.703 274.188C355.59 268.248 355.812 261.649 356.257 255.269C357.146 248.669 359.37 242.289 363.374 236.79C366.709 232.83 371.157 229.75 375.828 227.55Z" fill="#E57F45"/>
<path d="M567.804 182.495C582.647 176.335 599.706 179.195 614.105 171.934C620.752 168.633 628.062 164.673 635.816 166.433C643.791 167.753 650.216 175.454 649.994 183.596C649.773 185.356 650.438 188.656 647.779 188.876C645.564 187.336 646.007 184.256 645.342 182.055C643.791 177.435 640.69 172.814 635.595 171.494C629.17 169.514 622.745 173.034 616.985 175.674C602.807 182.936 586.192 181.615 571.349 186.676C564.26 189.317 558.721 195.477 556.063 202.518C553.847 210.66 554.512 221.001 561.823 226.502C563.152 227.822 566.032 227.162 566.032 229.362C565.146 231.563 562.266 231.123 560.272 230.463C554.734 228.042 551.632 222.101 550.524 216.381C549.417 209.34 549.86 201.638 553.847 195.477C557.17 189.977 561.823 185.136 567.804 182.495Z" fill="#E57F45"/>
<path d="M579.071 199.955C581.961 197.493 586.185 197.269 589.741 197.493C596.855 198.164 603.969 197.045 610.416 194.358C613.973 193.015 617.529 191 621.531 191C625.532 191.224 628.645 194.582 630.646 197.94C631.312 199.284 631.09 201.299 629.534 201.522C626.644 200.179 624.643 197.045 621.309 196.597C618.196 197.045 615.751 198.612 612.861 199.507C605.747 202.866 597.522 203.985 589.519 203.09C587.296 203.09 584.851 202.642 582.85 203.985C580.627 206.224 580.627 209.806 581.516 212.716C582.628 214.955 585.073 215.851 586.629 217.866C587.296 219.209 586.407 221 584.851 221C581.294 220.552 577.959 218.537 576.181 215.403C573.958 210.254 574.847 203.761 579.071 199.955Z" fill="#E57F45"/>
<path fill-rule="evenodd" clip-rule="evenodd" d="M53.1912 102.109C54.0756 101.665 54.96 101.296 55.8444 101C56.5078 102.331 57.6133 102.775 58.7188 103.44C56.95 108.542 51.6435 111.648 46.7792 113.422C62.4777 122.517 77.7339 132.277 93.2113 141.594C146.498 173.758 199.563 206.588 252.628 239.196C257.271 242.745 262.799 244.963 267 248.734C264.568 249.843 262.357 247.181 260.146 246.294C253.292 242.523 247.101 238.087 240.246 234.316C181.211 198.38 122.176 162.223 63.3621 125.844C57.3922 122.295 51.4224 118.524 45.4525 114.753C44.347 112.757 45.4525 110.317 46.7792 108.764C48.548 106.102 50.9802 104.106 53.1912 102.109ZM52.3068 105.215C50.538 106.989 48.548 108.764 47.4425 111.204C50.5379 109.873 53.1912 107.433 55.8444 105.436C54.6652 105.289 53.486 105.215 52.3068 105.215Z" fill="black"/>
<path d="M58 101C62.65 102.327 66.4143 105.645 70.4 108.078C134.393 150.322 198.386 192.787 261.936 235.695C266.364 238.791 271.236 241.224 275 244.984C274.114 247.196 272.564 245.205 271.236 244.542C201.486 198.538 131.957 152.312 62.65 105.423C60.8786 104.318 58.8857 102.991 58 101Z" fill="black"/>
<path fill-rule="evenodd" clip-rule="evenodd" d="M3 170.759C3.22147 165.252 4.9932 159.084 9.86543 156C10.3084 156.441 10.9727 157.322 11.4156 157.762C95.1294 191.465 178.622 226.05 262.114 260.414C262.336 260.854 262.779 261.735 263 261.956C262.336 261.956 261.007 261.956 260.342 261.956C177.293 228.032 94.2436 194.109 11.4156 159.524C10.5298 163.269 9.20102 166.794 7.4293 170.098C62.7956 191.906 118.383 213.494 173.971 235.522C196.118 244.333 218.264 253.144 240.411 261.956C243.733 263.277 247.055 264.379 250.376 265.921C249.638 266.949 248.826 267.242 247.94 266.802C206.157 250.501 164.448 234.2 122.813 217.899C83.8348 202.479 44.8569 187.06 5.87902 171.86C4.84551 171.42 3.88586 171.053 3 170.759ZM5.21465 169.217C7.20784 166.133 8.5366 162.608 9.20099 159.084C6.98634 161.948 4.99319 165.472 5.21465 169.217Z" fill="black"/>
<path d="M494.06 113.4C501.808 110.516 509.999 108.741 517.746 105.635C534.349 100.532 551.173 95.6516 567.996 90.7708C577.515 88.5523 586.813 85.2244 596.331 83.4496C605.629 81.6747 614.483 77.9032 623.781 76.572C640.383 72.8005 657.428 70.1382 674.474 68.3634C677.13 68.1415 679.786 67.476 682 68.8071C675.802 70.5819 669.382 70.5819 663.184 71.6912C647.024 73.9098 630.643 76.7939 614.926 81.0091C602.308 83.4496 590.354 87.8867 577.958 90.5489C569.767 92.1019 562.02 94.7642 554.05 96.9828C546.967 99.2013 539.662 100.754 532.799 103.417C524.166 106.523 515.311 108.519 506.678 111.625C500.037 114.509 492.953 115.619 486.534 118.725C482.328 120.278 477.9 121.165 473.694 123.162C441.965 134.55 410.531 146.9 379.392 160.212C358.141 169.086 337.111 177.96 316.303 187.944C294.609 198.371 273.358 209.685 252.107 221C251.885 220.778 251.221 220.113 251 219.891C260.076 213.901 269.816 209.464 279.335 204.361C303.907 191.271 328.921 179.069 354.599 168.198C391.125 152.447 427.65 137.36 465.061 123.827C468.824 121.609 473.473 121.165 477.458 119.39C482.77 116.728 488.747 115.84 494.06 113.4Z" fill="black"/>
<path d="M521.151 117.675C528.863 114.825 536.355 111.535 544.507 110C545.609 110.219 547.371 110 546.931 111.535C542.524 112.193 538.117 113.289 534.151 115.263C525.117 118.114 516.524 122.061 507.931 125.789C482.813 136.754 457.695 147.281 432.136 156.93C428.831 158.465 425.525 159.342 422 160C423.983 156.93 428.169 156.93 431.034 155.175C461.22 143.333 491.186 130.395 521.151 117.675Z" fill="black"/>
<path d="M689 68.3308C696.278 67.4419 703.556 68.5531 710.835 69.2198C714.363 69.442 717.892 70.1088 721.421 70.331C732.008 72.1089 743.476 74.1091 751.857 81.4431C756.048 84.5545 758.474 89.4438 760.679 94.1109C761.267 95.2961 761.047 96.2592 760.018 97C758.474 93.2219 756.489 89.666 754.063 86.3324C749.211 80.9986 742.594 77.4427 735.757 75.6648C733.404 75.0721 731.052 74.4795 728.699 73.8869C726.788 73.5906 724.876 73.2202 722.965 72.7757C720.759 72.4793 718.554 72.183 716.348 71.8867C707.306 70.9977 698.484 69.442 689.441 69.8865C689.441 69.442 689.221 68.5531 689 68.3308Z" fill="black"/>
<path d="M564 109.558C567.988 108.013 571.976 106.027 576.185 104.923C588.443 101.391 600.628 97.9329 612.739 94.5483C621.601 91.6787 630.684 90.575 639.546 87.7054C644.641 87.2639 649.515 85.7187 654.611 84.8358C670.34 81.9662 686.291 80.6417 702.242 81.0832C715.535 81.304 729.27 84.3943 740.791 91.6787C742.341 93.0031 745 93.8861 745 96.0935C742.785 97.8594 741.898 94.5483 740.348 93.6653C727.72 85.9395 712.876 83.0699 698.255 83.2906C676.986 83.5113 655.718 86.3809 635.115 91.6787C626.253 92.7824 617.835 96.0934 609.195 98.0801C598.561 100.508 587.927 102.936 577.736 106.91C573.748 108.013 569.539 109.779 565.329 110C565.108 110 564.443 109.558 564 109.558Z" fill="black"/>
<path d="M551.834 130.841C560.006 127.224 567.957 121.573 577.454 122.026C577.675 122.478 578.558 123.156 579 123.382C568.84 123.382 560.227 129.259 551.393 133.102C548.742 133.328 545.209 135.136 543 132.876C545.871 131.745 549.184 132.423 551.834 130.841Z" fill="black"/>
<path d="M584.85 125.228C591.003 121.676 598.035 118.79 605.506 119.012C607.264 119.234 610.121 118.79 611 121.01C603.968 120.122 596.716 120.788 590.564 124.34C582.873 128.337 575.182 132.111 567.271 135.441C560.678 137.439 554.525 140.991 547.494 141.657C545.516 141.657 543.318 142.767 542 140.991C544.417 139.881 547.274 140.103 549.911 139.437C555.185 138.549 559.799 135.441 565.073 134.331C571.812 131.667 578.404 128.633 584.85 125.228Z" fill="black"/>
<path d="M623.01 114.611C622.789 111.712 626.327 113.719 628.096 113.273C630.307 113.273 632.445 113.273 634.509 113.273C646.007 113.05 657.506 115.28 669.005 114.165C675.639 113.942 682.273 112.381 688.907 113.273C695.319 114.388 701.069 118.18 706.597 121.525C709.693 123.532 712.789 125.985 715 129.108C714.779 129.331 714.115 129.777 713.894 130C709.914 125.316 704.828 122.417 699.742 119.295C695.983 117.287 692.224 115.503 687.801 115.057C681.609 114.165 675.197 115.726 668.784 115.949C659.054 117.064 649.324 115.503 639.595 115.057C634.066 114.834 628.538 115.057 623.01 114.611Z" fill="black"/>
<path d="M506.2 153.319C512.393 151.324 518.586 149.33 525 148C524.115 148.886 523.231 149.995 521.904 150.216C517.038 152.211 511.508 152.876 506.864 155.535C494.921 159.968 482.977 164.4 471.034 168.832C463.514 170.605 456.437 174.151 448.917 176.146C441.176 179.47 432.992 181.243 425.03 183.903C419.943 186.119 414.856 187.67 409.548 189C409.106 188.778 408.442 188.114 408 187.892C413.529 184.568 419.722 183.459 425.473 181.022C441.397 176.589 456.658 170.162 472.582 165.286C477.448 163.07 482.756 161.962 487.843 159.968C493.594 157.086 500.45 156.422 506.2 153.319Z" fill="black"/>
<path d="M527.46 146C527.904 146.221 529.013 146.662 529.456 146.883C531.452 150.636 533.448 154.61 535 158.584C533.226 161.896 529.456 161.896 526.573 163.442C521.473 165.87 515.485 166.753 510.163 169.182C506.172 170.948 501.736 171.61 497.745 173.597C493.531 175.584 488.875 176.247 484.661 178.013C477.787 181.104 470.025 182.208 463.151 185.299C458.937 187.065 454.28 187.948 449.845 189.714C456.054 189.052 461.82 186.623 467.808 185.078C478.008 181.104 489.096 180.221 499.075 175.805C502.845 174.039 507.28 173.597 510.829 171.39C513.268 170.506 516.372 168.52 518.59 170.727C513.046 171.831 508.389 174.922 503.067 176.247C499.519 177.13 496.414 179.117 492.866 180C475.347 184.857 457.607 189.935 440.088 195.013C436.54 195.896 432.77 196.117 429.222 197C429.222 196.558 429 195.675 429 195.455C436.54 193.688 443.636 190.377 450.732 187.286C453.393 186.623 455.833 185.961 458.272 184.636C463.594 182.208 469.36 181.545 474.682 179.117C479.117 176.909 484.218 176.468 488.874 174.26C492.201 172.494 495.971 171.831 499.519 170.506C505.285 167.416 511.937 166.753 517.925 164.104C522.803 161.675 528.569 161.455 533.004 158.143C530.787 154.39 529.234 149.974 527.46 146Z" fill="black"/>
<path d="M580.75 133.444C584.96 130.556 590.057 128.111 595.375 129C595.375 128.778 595.597 127.889 595.597 127.667C598.699 127.222 601.801 127 604.903 127C611.551 127 615.983 133 622.187 134.556C623.96 135.222 626.176 135.444 627.284 137.222C623.96 137.444 620.858 136.333 617.756 135C613.989 133.444 611.329 129.889 607.341 129C603.795 128.556 600.25 128.778 596.704 129.222C599.585 130.111 602.466 130.556 605.125 132.111C607.562 133.889 609.778 135.889 611.994 138.111C614.875 141.667 619.085 145.222 624.182 144.556C628.614 145 631.716 141 635.483 139C638.585 137.222 642.131 136.333 645.676 135.444C646.784 135 647.892 135.889 649 136.333C643.017 137.889 636.591 139.444 631.716 143.889C628.392 146.333 624.403 146.556 620.415 146.333C614.21 144.778 610.886 139 606.233 135.222C602.466 131.889 597.369 130.778 592.494 130.556C587.619 131 583.631 133.667 579.864 136.333C577.205 138.333 574.767 140.556 573.437 143.444C572.108 147.444 573.437 151.667 573.437 155.667C573.216 156.111 572.551 156.778 572.329 157C571.443 153.222 571 149.222 571 145.222C572.108 139.889 576.54 136.111 580.75 133.444Z" fill="black"/>
<path d="M624 120C630.389 120 636.557 122.212 642.946 122.876C651.097 123.761 659.248 123.982 667.178 122.434C673.347 120.885 679.515 121.106 685.683 121.549C688.767 121.991 691.778 122.507 694.715 123.097C698.681 124.425 702.646 126.195 705.29 129.513C708.594 133.496 711.458 137.699 713 142.566C712.853 143.304 712.706 144.115 712.56 145C711.458 142.788 710.136 140.354 709.255 138.142C707.713 135.708 706.171 133.717 704.629 131.504C704.188 131.283 703.527 130.398 703.307 129.956C700.884 127.522 697.579 125.973 694.275 125.089C684.361 122.655 674.007 122.655 664.314 125.089C651.537 127.08 638.76 124.425 626.203 121.549C625.322 121.401 624.587 120.885 624 120Z" fill="black"/>
<path d="M221.681 239.923C225.542 237.846 228.722 234.615 232.583 233C234.173 234.846 230.766 236 229.858 237.154C226.905 239 224.407 241.308 221 242C221.227 241.538 221.454 240.385 221.681 239.923Z" fill="black"/>
<path d="M309.975 217.905C320.354 212.612 330.732 206.216 342.436 203.348C349.281 201.584 355.906 198.937 362.972 198.055C367.388 197.393 371.584 195.629 376 196.07C374.013 199.158 369.375 198.276 366.063 199.378C357.23 202.025 348.177 203.569 339.786 206.657C329.186 209.524 319.912 215.7 310.417 220.331C303.571 223.64 297.83 228.492 291.868 233.124C287.01 237.094 281.931 241.064 277.956 246.137C274.202 250.989 269.565 255.18 267.578 261.135C266.032 265.546 264.265 270.178 264.486 275.03C266.253 281.647 268.019 288.926 273.319 293.778C280.164 302.159 290.322 306.129 299.817 310.54C304.013 312.525 308.871 312.305 312.846 314.511C312.183 314.731 311.079 314.952 310.417 314.952C303.792 315.393 297.609 312.746 291.647 309.879C285.685 306.791 279.281 303.924 274.865 298.851C271.332 294.881 266.694 291.131 265.59 285.838C264.707 281.868 262.057 278.559 262.057 274.589C261.616 269.296 263.824 264.002 265.59 259.15C267.357 253.636 271.773 249.666 275.086 245.255C280.827 237.976 288.335 232.683 295.401 227.169C300.038 223.64 304.675 220.331 309.975 217.905Z" fill="black"/>
<path d="M550.082 147.5C556.688 145.227 562.633 141.136 569.459 140C569.899 140.227 570.56 140.682 571 141.136C562.633 142.955 555.367 148.182 547 150C547.881 149.091 548.761 147.727 550.082 147.5Z" fill="black"/>
<path d="M384 195.995C395.225 192.001 407.551 194.664 418.556 198.214C429.561 201.987 440.786 206.647 449.37 214.858C455.093 219.74 459.935 225.732 462.577 232.833C467.199 242.598 468.519 254.359 464.998 264.567C463.457 267.674 462.577 271.225 459.495 273C459.275 270.559 461.036 268.562 461.916 266.343C464.998 259.019 464.558 250.586 463.237 242.819C462.136 239.491 460.376 236.162 459.275 232.833C454.873 222.625 446.069 214.858 436.825 209.31C422.958 202.209 407.991 195.995 392.364 196.439C389.503 196.217 386.861 197.549 384.22 196.883L384 195.995Z" fill="black"/>
<path d="M623 127.941C623.217 127.706 623.87 127.235 624.304 127C627.348 127.471 630.609 128.176 633.652 128.412C635.246 128.726 636.841 128.961 638.435 129.118C639.884 129.118 641.406 129.196 643 129.353C642.783 129.824 642.565 130.529 642.565 131C639.739 131 636.913 130.529 634.304 130.294C632.42 130.137 630.536 129.902 628.652 129.588C626.768 129.275 624.884 128.725 623 127.941Z" fill="black"/>
<path d="M201.984 254.882C202.804 254.255 203.542 253.627 204.198 253C205.92 254.176 204.444 255.118 203.706 256.294C202.968 256.529 201.738 256.765 201 257C201.246 256.529 201.738 255.588 201.984 254.882Z" fill="black"/>
<path d="M543 159.788C549.765 155.368 558.108 154.315 566 152C565.775 152.421 565.775 153.263 565.775 153.684C560.363 155.368 554.951 156.42 549.539 158.104C547.51 158.736 545.48 160.63 543 159.788Z" fill="black"/>
<path d="M192.047 261.216C193.145 260.108 194.463 259.665 196 259C195.561 260.551 194.682 261.659 193.584 262.545C186.996 268.084 180.628 274.066 174.479 280.048C165.255 289.132 156.032 298.437 148.785 309.293C145.491 314.168 142.636 319.707 143.295 325.689C143.295 328.126 145.052 329.677 146.369 331.449C146.15 331.892 145.711 332.557 145.491 333C144.173 331.671 142.197 330.563 141.758 328.347C139.781 322.587 141.977 316.383 144.832 311.287C152.738 297.994 163.938 286.916 175.138 276.06C176.309 275.026 177.48 273.918 178.651 272.737C182.897 268.749 187.362 264.908 192.047 261.216Z" fill="black"/>
<path d="M663 127.421C667.245 126.754 671.49 126.976 675.735 127.421C677.522 127.644 679.533 127.866 681.321 128.089C689.811 128.756 698.524 131.87 704.556 138.099C706.344 140.324 707.684 142.845 708.578 145.663C709.472 146.775 708.801 148.11 707.908 149C707.461 144.773 704.78 140.991 701.875 137.877C696.513 133.428 689.811 130.536 682.885 129.868C680.65 129.72 678.416 129.498 676.182 129.201C674.841 129.053 673.575 128.904 672.384 128.756C669.256 128.534 666.351 128.534 663.447 128.534L663 127.421Z" fill="black"/>
<path d="M553 164C554.976 161.103 558.707 160.069 561.341 158C561.561 158.414 561.78 159.241 562 159.655C559.146 161.31 556.512 163.379 553 164Z" fill="black"/>
<path d="M519.258 171C523.66 171.222 521.459 176.333 523 179C519.918 183.222 514.856 185.444 510.014 187.222C504.731 189.889 498.788 190.778 493.285 193.222C489.543 195 485.361 195.667 481.62 197.444C474.576 200.778 466.872 201.444 459.609 204.111C454.546 205.889 449.043 207 443.981 209C443.247 208.556 442.587 208.185 442 207.889C447.063 206.111 451.905 203.444 457.187 202.111C465.772 199.667 474.356 197.444 482.72 194.778C490.204 191 498.568 190.111 506.052 186.333C511.554 185 516.617 182.333 521.019 178.778C520.359 176.111 521.019 173.222 519.258 171Z" fill="black"/>
<path d="M546.399 165.527C546.399 165.086 546.399 164.425 546.399 163.984C548.596 163.323 550.574 162.661 552.771 162C553.211 165.086 548.596 164.425 546.619 165.527C551.233 166.409 556.507 168.172 560.682 165.306C561.121 165.527 561.78 165.968 562 166.188C557.605 169.935 551.453 168.613 546.399 167.511C541.345 166.849 536.731 169.274 532.995 172.36C528.82 176.328 527.062 182.059 527.062 187.57C526.842 190.215 529.04 191.979 530.358 193.962C531.457 196.167 531.237 198.591 531.457 201.016C531.017 201.898 530.285 202.559 529.26 203C529.26 199.914 530.358 196.167 527.941 193.742C525.964 191.538 524.645 188.452 525.085 185.366C525.524 180.075 527.721 174.785 531.677 170.817C535.632 167.511 540.905 165.086 546.399 165.527Z" fill="black"/>
<path d="M757.235 107.319C758.342 105.546 759.007 103.108 761 102C760.336 107.541 756.792 111.973 753.249 115.962C748.598 120.838 743.947 125.714 739.075 130.589C735.974 133.544 732.8 136.425 729.552 139.232C727.78 140.71 726.008 142.187 724.237 143.665C712.942 152.086 700.761 159.4 688.802 167.157C656.468 187.324 623.692 207.27 589.365 224.114C566.775 235.416 543.743 245.832 521.375 257.357C514.952 260.459 508.53 264.449 501.443 266C501.443 265.557 501.221 264.67 501 264.449C506.094 263.119 510.523 260.681 514.952 258.465C544.629 242.73 575.412 229.432 605.31 213.919C628.564 201.508 651.153 187.989 673.743 174.249C672.857 172.919 671.75 171.811 671.75 170.481C672.414 164.497 673.521 158.514 671.085 152.751C669.978 150.978 668.649 148.984 667.099 147.432C664.441 145.438 661.119 144.551 658.462 142.335C663.555 142.114 668.206 145.438 671.085 149.427C674.629 153.638 674.407 159.4 674.407 164.497C673.964 167.378 672.635 170.924 675.293 173.141C692.124 162.724 709.177 152.308 725.344 140.562C731.25 135.687 736.86 130.515 742.175 125.049C743.504 123.571 744.907 122.094 746.383 120.616C750.37 116.405 754.577 112.638 757.235 107.319Z" fill="black"/>
<path d="M770.751 99.5487C770.971 99.1062 771.632 98.4425 771.852 98C776.038 115.92 777.36 134.504 776.919 153.088C776.479 170.345 773.615 187.381 770.09 204.416C764.802 229.637 756.651 254.195 745.635 277.425C735.06 300.876 720.74 322.558 705.098 342.912C696.947 353.531 688.795 364.15 678.661 373C678.441 372.779 678.22 372.336 678 372.115C681.305 367.469 685.49 363.487 689.236 359.283C705.759 339.372 720.961 318.354 733.739 296.009C750.262 265.699 762.599 232.735 768.988 198.664C772.513 180.965 774.937 162.823 774.716 144.681C774.937 129.416 772.733 114.372 770.751 99.5487Z" fill="black"/>
<path d="M565 162.13C565.615 160.826 566.308 159.449 567.077 158C567.308 158.652 567.769 159.739 568 160.391C567.385 161.261 566.846 162.13 566.385 163C565.923 162.783 565.231 162.348 565 162.13Z" fill="black"/>
<path d="M652 134C654.186 134 656.59 134.222 658.776 134.444C666.426 136.444 674.732 138.667 680.197 145.111C680.415 145.333 681.071 146.222 681.508 146.444C685.005 151.778 688.721 156.667 692 162C690.834 161.556 689.741 160.963 688.721 160.222C684.568 154.667 681.727 148.222 676.481 143.778C673.421 141.111 669.486 139.778 665.77 138.444C661.617 136.889 657.027 135.333 652.219 135.778C652.219 135.333 652 134.444 652 134Z" fill="black"/>
<path d="M406 208.102C408.48 208.102 410.735 207.872 413.216 208.102C414.719 208.409 416.297 208.715 417.951 209.022C421.784 210.401 427.196 210.861 429 215C421.784 211.781 414.118 209.482 406.226 209.482C406.226 209.252 406 208.332 406 208.102Z" fill="black"/>
<path d="M326.597 232.291C327.836 231.082 328.544 233.984 327.482 234.709C326.243 235.918 325.358 233.016 326.597 232.291Z" fill="black"/>
<path d="M764.678 110.113C765.119 109.891 765.78 109.223 766 109C766 110.781 765.559 112.562 764.458 113.676C758.951 120.133 753.444 126.59 747.276 132.156C745.955 133.344 744.706 134.531 743.531 135.719C742.21 136.758 740.962 137.871 739.787 139.059C736.85 141.582 733.913 144.105 730.976 146.629C722.164 153.531 713.353 160.211 703.881 166C703.661 165.777 703.22 165.332 703 164.887C711.811 158.652 720.622 152.641 728.993 145.738C731.196 143.957 733.399 142.176 735.601 140.172C741.329 135.273 747.056 130.152 752.343 124.809C756.528 119.91 761.374 115.68 764.678 110.113Z" fill="black"/>
<path d="M364.793 233.028C368.775 229.459 373.643 226.336 379.174 226.113C387.803 224.551 397.096 224.105 405.061 228.343C411.256 231.912 417.009 237.043 419 244.18C418.779 243.957 417.894 243.957 417.451 243.734C413.69 237.043 407.495 231.243 399.972 228.789C393.998 226.559 387.582 227.228 381.387 227.674C376.519 228.789 371.651 229.905 368.111 233.251C360.589 239.719 355.057 248.642 353.73 258.456C353.951 264.479 353.066 271.17 356.164 276.524C357.27 280.539 362.138 281.431 363.908 285C360.589 283.885 357.049 282.1 355.057 279.2C350.854 272.732 350.854 264.702 351.075 257.118C352.845 247.749 358.155 239.496 364.793 233.028Z" fill="black"/>
<path d="M682 142.06C684.889 141.606 687.111 143.876 689.778 144.557C693.778 146.6 698.667 147.508 702 150.686C699.556 151.821 697.556 149.551 695.333 149.097C690.889 146.827 685.556 145.692 682 142.06Z" fill="black"/>
<path d="M455 210.319C455.223 209.87 455.223 208.749 455.445 208.301C463.907 206.731 471.923 211.664 479.494 214.803C485.951 217.494 492.632 221.081 499.757 221.754C503.097 221.978 506.437 221.53 510 221.081C509.332 222.427 508.664 223.548 507.105 223.548C496.64 225.566 486.619 220.409 477.267 216.373C471.7 213.906 466.356 211.216 460.344 210.095C458.563 209.87 456.781 209.87 455 210.319Z" fill="black"/>
<path d="M503.81 196.428C506.913 194.883 510.237 194.441 513.562 194C514.301 194.294 515.113 194.662 516 195.103C510.016 196.648 504.031 197.752 498.712 200.841C490.954 205.034 482.532 210.11 473.444 208.786C471.893 208.344 469.011 207.903 470.341 205.917C472.336 206.358 474.109 207.241 476.326 207.241C479.207 206.579 482.088 205.696 484.97 204.813C491.841 203.048 497.382 198.634 503.81 196.428Z" fill="black"/>
<path d="M556.654 185.868C559.755 183.213 563.077 180.337 566.842 178.346C570.828 177.018 574.815 175.691 579.022 175.027C585.888 174.585 592.754 174.585 599.398 172.594C607.149 170.381 614.679 167.948 622.652 166.842C627.746 165.072 633.061 164.629 638.376 165.293C639.041 165.514 639.927 165.735 640.369 165.735C644.577 166.399 647.678 170.16 648.785 174.142C650.114 177.903 649.893 181.886 651 185.647C650.779 186.089 650.114 186.753 649.893 187.195C647.235 181.886 649.007 175.249 645.02 170.603C643.692 168.39 641.477 167.505 639.041 167.063C638.598 166.842 637.49 166.842 637.047 166.62C631.068 165.957 625.531 167.948 619.551 168.833C611.8 170.603 604.27 173.257 596.519 175.249C588.767 177.461 580.13 175.47 572.378 178.346C565.956 179.673 561.084 184.319 556.433 188.744C549.346 196.487 547.131 207.328 548.681 217.505C550.01 222.814 555.325 225.912 557.318 231C553.332 229.894 551.117 226.354 548.903 223.257C545.138 217.505 545.802 210.204 546.688 203.567C548.238 196.93 551.56 190.735 556.654 185.868Z" fill="black"/>
<path d="M566.74 183.559C569.623 181.577 572.95 180.476 576.277 180.036C583.374 179.815 590.471 179.155 597.79 178.935C602.67 178.714 607.327 176.512 611.985 175.191C617.086 173.869 621.743 170.786 627.066 170.346C631.502 169.905 636.382 169.465 640.374 171.887C644.809 174.089 646.362 178.935 648.358 183.119C649.245 185.101 649.023 187.083 648.802 189.065C647.471 187.964 647.249 186.202 646.805 184.661C645.475 181.798 644.366 178.714 642.592 176.072C637.934 170.786 630.393 171.667 624.183 172.768C621.078 173.649 618.195 175.411 615.09 176.072C609.767 177.173 605.109 180.476 599.565 180.476C591.802 181.137 584.039 181.357 576.055 181.798C573.837 182.238 571.398 182.678 569.401 184C564.522 187.744 560.086 192.369 556.759 197.434C555.651 200.077 555.207 202.72 554.32 205.362C552.767 209.547 554.542 213.951 556.094 217.915C558.312 222.1 562.97 223.641 566.075 226.945C565.04 227.092 564.078 226.945 563.191 226.504C559.643 224.522 556.094 221.88 554.32 218.136C553.285 215.64 552.545 213.07 552.102 210.428C551.658 207.565 552.767 204.922 553.433 202.279C554.763 194.351 561.417 188.845 566.74 183.559Z" fill="black"/>
<path d="M458 216C458.443 216 459.328 216 459.77 216C468.621 219.826 478.136 222.526 487.43 226.127C493.183 228.153 499.157 230.628 505.353 231.078C506.902 231.304 509.115 229.953 510 231.754C508.23 232.429 506.238 233.329 504.247 232.879C496.945 231.979 490.085 229.278 483.447 226.802C475.702 223.877 467.515 221.851 460.213 218.025C459.328 217.425 458.59 216.75 458 216Z" fill="black"/>
<path d="M226.291 287.772C234.653 283.552 243.455 279.998 252.037 276C252.477 276.222 253.357 276.444 253.577 276.666C251.597 278.221 249.396 279.11 246.976 280.22C239.054 283.774 231.133 287.55 223.431 291.77C212.209 297.767 200.986 304.209 191.524 312.871C188.664 315.759 185.583 318.868 184.703 323.089C185.143 325.31 187.563 326.42 189.544 326.865C195.265 327.753 200.986 327.531 206.707 327.753C213.309 327.975 219.91 328.642 226.291 326.643C233.773 325.532 241.035 323.089 248.296 320.868C254.457 318.202 260.619 316.425 267 314.87C263.479 319.091 257.538 318.646 253.137 321.09C242.355 324.866 231.573 328.197 220.57 329.752C212.869 330.419 204.947 329.53 197.245 329.53C193.065 329.308 188.664 329.53 185.143 326.865C183.162 325.532 182.502 322.867 183.383 320.645C185.803 314.87 190.644 310.872 195.265 306.874C204.727 299.322 215.729 293.547 226.291 287.772Z" fill="black"/>
<path d="M488.662 210.275C496.386 205.1 505.434 202.728 514.483 202.081C516.469 202.081 519.338 201.434 520 203.806C514.703 203.59 509.628 204.668 504.552 205.531C498.814 206.825 493.738 210.059 488 212C488.221 211.569 488.441 210.706 488.662 210.275Z" fill="black"/>
<path d="M258.238 279.35C257.577 278.233 258.458 277.117 258.899 276C260.441 280.913 262.644 285.825 264.407 290.738C267.271 296.32 271.017 301.903 274.102 307.485C275.864 310.835 278.509 313.291 281.153 315.971C282.915 317.981 284.898 319.544 286 322C282.475 321.33 280.712 317.981 278.288 315.971C277.554 315.227 276.893 314.482 276.305 313.738C276.085 313.515 275.204 312.621 274.983 312.398C270.797 305.922 266.831 299.447 263.085 292.971C261.543 288.505 259.119 284.262 258.238 279.35Z" fill="black"/>
<path d="M247.715 285.437C249.479 284.773 251.243 283.886 253.006 283C253.227 283.222 253.888 283.886 254.109 284.108C252.124 285.437 250.361 286.545 248.156 287.21C238.895 290.977 230.296 296.073 221.476 300.947C216.331 303.754 211.407 307.004 206.703 310.696C204.057 313.134 200.309 315.349 199.427 319.116C202.514 320.889 206.262 320.224 209.79 320.002C219.271 319.116 228.752 318.23 238.234 316.679C245.289 314.685 252.566 312.912 259.401 310.475C262.047 309.145 264.252 307.373 266.677 305.822C267.118 306.043 267.559 306.487 268 306.708C264.693 309.145 261.385 312.026 257.416 313.134C250.949 315.202 244.407 317.048 237.793 318.673C227.062 320.298 216.258 321.406 205.38 321.997C202.734 321.997 199.207 322.218 198.104 319.116C197.443 316.457 200.089 314.463 201.632 312.691C209.349 305.822 217.948 300.726 226.768 295.851C233.383 291.863 240.439 288.318 247.715 285.437Z" fill="black"/>
<path d="M513.573 215.663C516.205 209.887 522.567 208.11 527.613 205C527.832 205.222 528.051 206.111 528.271 206.555C524.98 208.554 521.47 210.11 518.399 212.553C515.986 214.553 514.67 217.441 514.011 220.551C514.231 223.217 514.011 226.327 515.328 228.771C519.934 234.324 528.271 235.435 532 241.878C529.806 242.544 528.271 240.323 526.735 239.212C522.567 235.657 516.644 234.324 513.573 229.437C511.818 225.216 511.16 219.884 513.573 215.663Z" fill="black"/>
<path d="M398 245.472C399.333 244.591 400 244.943 400 246.528C398.667 247.409 398 247.057 398 245.472Z" fill="black"/>
<path d="M382.11 251.703C382.506 250.357 384.483 251.126 383.89 252.473C383.494 253.627 381.517 252.665 382.11 251.703Z" fill="black"/>
<path d="M243.528 295.333C246.822 294.444 249.897 293.111 252.972 292C253.631 292.222 254.509 292.667 255.168 292.889C242.43 297.778 229.692 303.111 218.271 310.667C216.953 311.778 214.318 313.111 215.196 315.111C216.294 315.778 217.393 316 218.71 316.222C224.201 316.222 229.252 314 234.743 312.667C243.089 310.444 251.435 307.556 260 305.556C259.341 307.111 258.023 308 256.266 308.222C245.944 311.333 235.402 314.444 224.86 317.333C223.103 317.556 221.126 317.556 219.15 318C217.392 317.704 215.636 317.259 213.878 316.667C213.586 315.63 213.293 314.593 213 313.556C213.879 312.444 214.757 311.111 216.075 310.222C224.421 304 234.084 299.778 243.528 295.333Z" fill="black"/>
<path d="M571.16 208.546C572.037 203.915 575.549 199.724 580.157 198.401C586.522 197.298 593.106 200.165 599.47 199.283C603.42 198.401 606.054 194.872 609.785 193.549C614.613 191.784 620.319 189.579 625.586 192.225C627.561 192.887 627.561 195.313 628 196.857C626.976 195.975 626.025 195.019 625.147 193.99C622.733 193.328 620.319 192.225 617.905 192.887C614.393 193.769 610.882 194.651 608.029 196.636C605.615 197.96 603.64 200.165 601.006 200.827C593.764 203.253 586.083 198.18 579.06 201.047C573.135 203.694 571.379 211.855 574.89 217.368C576.207 219.353 578.402 220.015 580.377 221.118C579.718 221.338 578.621 221.779 577.963 222C576.061 221.118 574.378 219.942 572.915 218.471C572.037 215.163 570.501 211.855 571.16 208.546Z" fill="black"/>
<path d="M757.975 153.087C758.197 151.317 757.975 149.106 759.529 148C760.638 152.202 759.529 156.625 758.863 160.828C753.759 185.156 747.768 209.041 739.114 232.263C733.788 247.524 727.797 262.784 720.696 277.16C708.936 302.372 694.069 326.037 675.873 347.048C672.544 350.586 669.216 354.346 665 357C665.222 356.558 665.444 355.452 665.444 355.009C684.305 335.547 699.616 312.988 711.82 288.881C722.472 268.534 731.126 247.303 738.67 225.629C745.993 205.503 751.096 184.492 755.978 163.703C756.644 160.164 757.31 156.625 757.975 153.087Z" fill="black"/>
<path d="M396 253.472C397.333 252.591 398 252.943 398 254.528C396.667 255.409 396 255.057 396 253.472Z" fill="black"/>
<path d="M469.414 235C476.725 235.889 484.036 236.111 491.347 235.667C493.12 235.667 495.114 234.778 496 236.556C488.689 238.778 480.934 237.889 473.18 237.444C472.072 236.778 467.641 237 469.414 235Z" fill="black"/>
<path d="M236 306.204C241.388 301.265 248.796 298.796 255.98 297C256.204 297.224 257.102 298.122 257.327 298.347C251.265 299.918 245.204 301.939 239.816 305.531C246.102 304.184 251.939 302.612 258 301.265C257.551 302.612 256.429 303.51 255.082 303.735C249.02 305.306 242.959 307.327 236.673 308C236.449 307.551 236 306.653 236 306.204Z" fill="black"/>
<path d="M687.889 173.884C688.926 173.589 689.963 173.295 691 173C690.778 173.442 690.333 174.326 690.111 174.988C673.889 185.151 657.444 195.535 640.778 205.035C636.778 207.023 633.222 209.895 629 211C629.222 210.558 629.889 209.674 630.333 209.233C649.667 197.744 669.444 186.698 687.889 173.884Z" fill="black"/>
<path d="M468 237C468.439 237.22 469.537 237.661 469.976 237.882C471.293 242.071 473.488 245.819 474.366 250.008C475.902 253.976 475.902 258.386 477 262.354C476.78 263.016 476.342 264.339 476.122 265C474.585 263.457 474.805 261.252 474.366 259.268C472.39 251.772 470.195 244.496 468 237Z" fill="black"/>
<path d="M581.06 206.106C584.182 203.081 589.088 203.513 593.103 204.377C596.448 205.242 599.793 203.513 603.361 202.649C608.713 201.352 613.396 197.247 619.195 197.031C622.317 196.815 626.777 197.679 627 201.568C624.77 200.488 622.54 198.327 619.864 198.975C615.18 198.975 611.166 201.352 607.152 203.297C603.435 204.593 599.644 205.602 595.779 206.322C591.988 206.322 587.75 204.809 583.959 206.322C582.621 207.186 581.06 208.051 581.06 209.779C579.945 212.804 583.959 213.885 585.52 215.829C582.621 216.694 580.391 214.101 579.053 211.94C578.83 209.995 579.276 207.402 581.06 206.106Z" fill="black"/>
<path d="M421.313 252.329C421.757 252.108 422.423 251.443 422.646 251C423.534 256.537 424.645 262.075 423.534 267.834C422.646 275.808 418.203 283.339 411.317 287.769C401.542 294.414 389.325 296.85 377.551 295.743C373.331 294.857 369.332 293.306 366 290.648V289.319C369.999 290.87 373.775 293.085 377.996 293.749C389.769 294.414 402.209 291.313 411.761 284.225C418.425 279.13 421.313 270.713 421.979 262.518C422.423 259.195 421.757 255.652 421.313 252.329Z" fill="black"/>
<path d="M394.097 262.4C395.524 261.6 396.149 262 395.97 263.6C394.365 264.4 393.741 264 394.097 262.4Z" fill="black"/>
<path d="M151 333.778C153.214 333.111 155.429 334 157.643 334.667C161.481 335.407 165.393 336.148 169.379 336.889C186.651 338.444 204.145 338 221.417 336.222C249.761 334.222 277.662 329.556 305.342 323.333C308.295 323.037 311.173 322.444 313.978 321.556C318.185 320.222 322.614 320 327.043 318.667C337.229 315.778 347.637 312.889 358.044 310.444C368.673 308 378.638 303.778 389.267 300.889C397.682 298.222 406.318 296.222 414.511 292.889C421.818 290.222 429.347 288.889 436.655 286C443.076 283.111 450.162 282 456.805 279.111C463.227 276.444 470.535 275.556 476.956 272.222C482.935 270 489.578 268.667 495.557 266L496 267.333C494.007 268 492.236 268.667 490.464 269.556C486.257 271.556 481.385 272.222 477.178 274.222C471.642 276.889 465.442 277.778 459.684 280.222C453.927 282.889 447.727 283.778 441.748 286.222C434.662 289.333 426.69 290.444 419.604 293.778C410.525 296.889 401.225 299.111 392.146 302.222C382.181 306 371.995 308.444 361.809 311.556C352.508 314 343.208 317.111 333.465 318.889C326.6 320.444 319.957 323.111 312.871 323.778C307.335 325.556 301.578 326 296.263 327.556C279.212 330.889 262.383 334 245.111 336C228.946 337.778 213.003 339.556 196.616 340C182.666 340 168.272 340 154.764 335.556C153.436 335.333 152.329 334.444 151 333.778Z" fill="black"/>
<path d="M378 270.529C379.481 269.588 380.14 269.902 379.975 271.471C378.659 272.412 378 272.098 378 270.529Z" fill="black"/>
<path d="M474 245.675C481.36 244.798 488.719 244.359 495.633 241.07C498.532 239.535 501.655 238.658 505 238C504.777 238.439 504.331 239.316 504.108 239.754C495.187 243.701 485.597 247.21 475.784 246.99C475.338 246.552 474.446 245.894 474 245.675Z" fill="black"/>
<path d="M151 341C153.431 342.773 154.315 345.876 156.082 348.314C160.944 355.849 167.131 362.276 172.877 368.925C180.611 378.454 188.345 388.206 196.521 397.071C208.675 409.703 221.934 420.784 236.297 430.536C262.593 448.487 291.32 463.779 322.699 471.093C326.897 471.979 331.096 473.087 335.516 473.974C338.462 474.565 341.408 475.082 344.355 475.525C346.859 476.116 349.437 476.633 352.089 477.077C355.182 477.52 358.497 477.963 361.591 478.406C366.01 478.85 370.43 479.515 374.85 479.736C390.981 481.288 407.554 483.282 423.685 481.288C425.011 480.844 426.116 481.509 427 481.952C422.58 483.947 417.719 483.725 412.857 483.947C395.621 484.39 378.385 481.952 361.149 480.401C357.392 479.736 353.636 479.293 349.879 478.628C347.817 478.333 345.828 477.963 343.913 477.52C342.882 477.372 341.85 477.224 340.819 477.077C339.64 476.781 338.388 476.486 337.062 476.19C332.864 475.304 328.444 474.417 324.246 473.309C321.889 472.866 319.605 472.349 317.396 471.758C290.436 464.887 265.245 451.812 242.042 436.741C225.027 425.66 209.117 413.249 195.195 398.622C194.017 397.292 192.838 396.036 191.66 394.854C189.008 391.752 186.135 388.427 183.484 385.103C176.191 376.238 168.678 367.152 161.165 358.287C156.966 353.189 152.105 347.649 151 341Z" fill="black"/>
<path d="M496.372 247.522C503.061 244.164 509.75 240.582 516.439 237C516.885 237.448 517.554 238.119 518 238.343C507.743 243.493 498.155 250.209 486.784 252C486.338 251.776 485.446 251.328 485 250.881C488.791 249.537 492.804 248.866 496.372 247.522Z" fill="black"/>
<path d="M156 340.635C158.441 340.202 160.659 341.286 162.878 341.936C170.865 344.103 179.296 344.32 187.727 343.887C221.45 343.02 255.396 340.852 288.897 336.084C290.672 335.867 292.225 335.433 294 335C293.852 336.3 293.186 337.023 292.003 337.167C282.019 339.118 272.035 340.202 261.83 341.069C240.087 343.453 218.344 344.754 196.601 345.621C186.839 345.837 176.855 346.704 167.093 344.754C163.322 343.887 159.106 343.236 156 340.635Z" fill="black"/>
<path d="M483 261.705C496.983 257.386 511.187 252.636 522.951 244C523.395 246.375 520.731 247.67 519.178 248.966C512.741 252.852 506.083 255.875 498.98 258.25C494.097 260.625 488.771 261.92 483.666 263C483.444 262.784 483.222 262.136 483 261.705Z" fill="black"/>
<path d="M257.49 323.075C263.327 321.275 269.612 319.925 275 317C275 317.45 274.776 318.35 274.776 318.8C268.041 322.4 260.408 324.2 253 326C253.449 323.975 255.694 323.75 257.49 323.075Z" fill="black"/>
<path d="M206.708 388.565C205.823 387.459 203.609 385.469 206.265 386.132C217.555 395.863 230.837 402.719 243.676 409.796C279.538 427.71 316.728 443.191 355.91 452.037C362.33 453.364 368.749 454.47 375.39 455.576C379.596 456.239 383.802 456.681 388.008 457.566C389.927 457.713 391.845 457.935 393.764 458.229C397.085 458.672 400.626 458.893 404.168 459.335C406.677 459.483 409.186 459.704 411.695 459.999C414.13 459.999 416.565 460.22 419 460.662C417.45 462.21 415.015 461.989 412.802 461.989C405.054 461.547 397.306 460.883 389.558 459.778C372.07 457.566 354.582 454.691 337.536 449.825C307.43 441.643 278.431 429.258 250.539 415.546C235.486 407.363 219.547 399.844 206.708 388.565Z" fill="black"/>
<path d="M630.156 386C639.124 380.13 647.195 373.174 654.817 366C655.041 367.087 655.265 368.609 654.144 369.478C648.764 375.348 642.487 380.13 635.985 384.913C632.398 387.304 629.035 389.913 625 391C625.897 388.609 628.363 387.522 630.156 386Z" fill="black"/>
<path d="M664.363 382.979C666.575 381.431 668.566 379.663 671 379C670.336 381.431 667.681 382.315 665.911 384.084C653.964 394.472 641.353 404.197 628.078 413.039C613.697 422.764 598.652 431.163 583.165 438.899C566.129 447.077 549.314 455.255 531.614 461.444C526.968 463.876 521.437 464.539 516.569 466.749C509.932 469.18 503.073 471.169 495.993 472.496C490.462 473.601 485.152 475.59 479.621 476.253C467.821 478.906 455.947 480.821 444 482C444.221 481.779 444.443 480.895 444.664 480.674C456.39 478.464 468.337 477.137 480.063 474.043C486.922 473.38 493.117 470.948 499.754 469.401C526.747 462.549 552.411 451.498 577.191 439.341C601.749 427.627 624.98 413.923 646.441 397.345C648.875 395.356 651.53 393.588 653.964 391.599C655.439 390.272 656.988 389.02 658.61 387.841C660.528 386.22 662.445 384.599 664.363 382.979Z" fill="black"/>
<path d="M659 394C665.591 395.537 667.182 402.561 671.045 406.951C672.409 408.415 673.394 410.098 674 412C673.545 411.78 672.409 411.561 671.955 411.561C670.742 409.951 669.53 408.341 668.318 406.732C665.364 403.219 664 398.61 659.682 396.195C659.682 395.756 659.227 394.659 659 394Z" fill="black"/>
<path d="M432 463.391C432.435 462.946 433.304 462.501 433.739 462.056C437.217 462.056 440.696 462.056 444.174 462.056C445.261 461.833 446.348 462.278 447 463.391C442 463.836 437 464.504 432 463.391Z" fill="black"/>
<path d="M657.198 409.716C656.089 407.738 654.759 405.319 657.42 404C658.307 407.518 661.855 412.135 658.75 415.433C654.537 420.489 648.994 424.007 643.894 427.965C640.346 430.383 637.02 433.681 633.029 435C632.807 433.681 633.916 432.801 634.803 431.922C641.455 426.645 648.55 421.809 654.981 416.092C656.533 414.553 658.972 412.135 657.198 409.716Z" fill="black"/>
<path d="M668.695 417.659C670.242 416.551 672.011 415.443 674 415C673.558 416.034 672.968 416.847 672.232 417.438C659.853 426.745 648.137 436.717 635.758 445.803C609.012 466.19 578.728 481.702 547.118 492.117C535.623 495.663 523.908 498.987 512.192 502.089C507.992 503.197 503.792 504.748 499.593 505.413C493.624 506.078 487.877 508.737 481.909 509.18C474.614 511.175 466.877 511.839 459.362 513.612C458.477 513.834 455.604 514.72 456.046 512.726C465.33 509.623 475.498 509.402 485.003 506.299C491.193 505.413 497.161 503.862 503.129 502.089C517.276 499.208 530.981 494.998 544.908 490.787C549.992 488.35 555.518 487.463 560.602 485.026C580.496 477.713 599.285 467.741 616.969 456.218C627.138 449.57 636.864 442.257 646.369 434.944C653.737 429.035 661.179 423.273 668.695 417.659Z" fill="black"/>
<path d="M446 489.317C446.229 488.878 446.915 488.22 447.372 488C448.744 493.049 447.829 498.317 449.43 503.366C449.887 507.317 452.402 511.049 451.945 515C449.43 513.902 449.201 511.268 448.515 509.073C446.229 502.707 446.229 495.902 446 489.317Z" fill="black"/>
<path d="M616.778 445.838C619.445 443.892 621.667 441.081 625 440C623.889 443.676 620.111 445.622 617.445 448C613.445 450.811 609.667 454.27 605 456C605.444 454.919 605.889 453.838 607 452.973C610.111 450.595 613.445 448.216 616.778 445.838Z" fill="black"/>
<path d="M456 490.778C456.365 490.333 456.912 489.444 457.094 489C458.006 493.444 458.189 498.333 457.824 502.778C457.459 502.778 456.912 503 456.547 503C456.365 499 456.182 494.778 456 490.778Z" fill="black"/>
</svg>
