<svg width="780" height="580" viewBox="0 0 780 580" fill="none" xmlns="http://www.w3.org/2000/svg">
<rect width="450" height="450" rx="225" fill="#F0E9DA"/>
<path d="M729 440.129C729 434.604 733.909 431.842 738.148 430C740.082 430.767 742.016 431.535 743.95 432.302C745.289 435.755 747.297 439.668 744.842 442.891C741.495 449.567 729.893 447.725 729 440.129Z" fill="black"/>
<path d="M397.383 48.701C410.16 47.7663 422.863 47.7663 435.493 48.701C460.166 48.701 484.839 52.6731 508.41 60.3837C508.85 59.9164 509.511 58.9818 509.952 58.5145C510.98 59.6049 512.008 60.6953 513.036 61.7857C515.679 61.7857 518.543 63.1876 520.085 65.7578C519.645 66.2251 519.204 67.1597 518.984 67.627C522.949 76.5059 525.372 86.3194 528.897 95.4319C533.082 108.984 539.251 121.835 544.097 135.153C547.401 144.032 550.706 152.911 553.349 162.257C556.874 173.94 559.077 185.856 562.601 197.539C567.668 211.325 573.175 224.877 577.802 238.662C580.004 247.541 583.749 256.42 582.868 266C580.445 265.766 578.242 264.364 576.48 262.963C565.245 255.252 554.671 246.84 542.555 240.532C529.558 233.522 515.9 227.447 502.682 220.671C499.157 218.568 494.752 217.633 491.668 214.596C484.838 204.549 479.552 193.333 474.044 182.352C461.488 161.79 446.067 143.098 431.528 123.938C411.041 98.2358 390.334 72.3002 365 51.9722C365 51.2712 365 49.6356 365.22 48.9346C368.084 50.5702 371.609 50.3365 374.913 49.8692C382.403 48.4673 389.893 49.1683 397.383 48.701Z" fill="#E57F45"/>
<path d="M320.915 61.3161C323.565 60.1447 325.773 62.4874 327.54 64.1273C332.177 69.0471 337.477 72.7955 341.894 77.9496C357.131 89.4292 369.498 104.189 382.526 118.245C398.205 136.284 414.988 153.152 431.771 170.02C437.734 176.58 444.138 183.608 448.333 191.808C449.217 193.448 449.658 197.431 446.788 196.962C435.746 192.979 424.705 189.231 413.001 187.825C403.284 187.357 393.568 187.122 383.851 188.059C370.16 189.231 356.689 187.825 343.219 189.934C337.257 190.871 332.177 186.419 326.657 184.545C308.549 175.877 289.557 169.552 271.229 161.118C254.225 153.621 237.663 145.655 220.88 138.159C216.905 136.284 212.488 137.69 208.292 137.69C205.422 136.519 208.072 133.942 209.176 132.302C216.021 124.102 224.634 117.542 232.804 110.748C248.042 98.5659 264.162 88.0235 280.724 78.4182C293.532 71.1556 307.886 67.8758 320.915 61.3161Z" fill="#E57F45"/>
<path d="M565 84.8482C565 82.7429 565 80.6375 566.765 79C567.867 81.3393 568.308 84.1465 570.514 85.5501C579.999 92.8019 588.38 101.457 597.644 109.411C610.657 121.575 623.45 134.441 635.581 148.009C643.742 157.6 651.241 168.361 654.991 180.993C659.402 192.222 660.064 204.62 661.388 216.784C664.475 246.259 671.093 275.267 681.68 302.87C686.753 316.438 691.826 330.24 699.104 342.638C699.987 344.51 701.751 346.381 700.648 348.721C698.443 349.656 696.678 348.019 694.914 347.083C689.62 344.276 684.768 340.767 679.474 338.428C673.519 336.088 668.666 331.644 663.152 328.135C657.858 324.86 652.785 320.883 647.492 317.374C638.669 312.228 630.729 305.912 623.45 298.894C617.495 293.981 612.642 287.899 606.908 282.986C605.584 279.244 605.364 275.267 604.702 271.29C602.717 256.552 598.967 242.049 596.32 227.545C593.233 211.17 590.365 194.561 586.836 178.186C583.087 161.577 578.896 145.202 575.146 128.593C573.161 119.938 572.72 110.814 570.735 102.159C569.411 97.2465 568.088 92.334 566.985 87.1875C566.323 86.7197 565.441 85.55 565 84.8482Z" fill="#E57F45"/>
<path d="M187.849 165.406C189.17 164.937 190.565 164.469 192.033 164C192.253 164.703 192.693 165.875 192.914 166.578C205.466 168.687 218.019 171.499 230.351 174.781C254.795 181.577 280.341 184.858 303.904 194.467C307.208 195.17 308.309 199.388 305.005 201.029C297.518 205.013 289.37 208.06 281.882 212.278C262.283 221.887 245.326 236.652 224.846 244.854C217.138 248.604 207.668 247.198 200.401 242.511C192.253 236.417 187.628 226.808 183.224 217.668C180.141 210.638 176.177 204.076 174.415 196.342C173.975 193.529 173.534 190.717 175.076 188.373C177.498 183.452 179.921 178.53 182.784 173.843C184.545 171.031 186.748 168.687 187.849 165.406Z" fill="#E57F45"/>
<path d="M686 239.64C686.438 239.172 687.096 238.469 687.535 238C689.508 241.749 693.235 243.858 694.989 247.607C697.4 252.762 701.566 256.277 704.854 260.963C711.87 270.336 718.666 280.178 727.655 287.442C735.766 294.706 744.974 301.032 751.99 309.468C757.471 315.795 763.609 323.293 762.951 332.666C762.513 337.352 758.347 339.695 755.497 342.273C749.359 347.896 742.124 351.646 734.67 354.926C730.505 356.566 726.558 360.081 721.954 358.675C718.447 353.989 717.57 347.896 715.377 342.507C710.335 328.448 706.827 313.686 702.443 299.158C696.304 279.475 693.235 258.855 686 239.64Z" fill="#E57F45"/>
<path d="M404 47.4043C405.104 46.4518 405.987 44.7849 407.753 45.023C419.01 45.7374 430.488 44.5468 441.746 45.2612C451.237 46.6899 460.729 47.4043 470 49.0712C469.706 50.5 468.896 51.1349 467.572 50.9762C457.639 50.9762 447.926 49.3093 437.993 48.3568C432.475 47.1661 426.736 47.1662 421.217 48.1187C415.478 49.3093 409.739 47.1662 404 47.4043Z" fill="black"/>
<path d="M371.376 47.4062C380.397 47.6426 388.979 45.2789 398 46.2243C397.78 46.6971 397.34 47.6426 397.12 48.3517C386.778 48.3517 376.217 50.0063 365.875 50.7154C353.334 51.4246 341.452 56.3884 328.91 57.3339C319.889 58.9885 310.428 60.6431 302.507 66.3161C295.906 69.6253 288.865 72.4618 282.924 77.1893C275.003 83.335 266.202 88.0624 257.181 91.8444C255.86 91.8444 253.22 94.4445 253 91.8444C254.76 90.4262 256.741 89.4807 258.721 88.5352C266.202 84.7532 273.463 80.9712 280.064 75.5346C284.024 72.2254 288.865 69.6253 293.486 67.2616C296.126 66.0009 298.766 64.819 301.407 63.716C302.433 63.0856 303.534 62.4553 304.707 61.825C307.201 60.7219 309.768 59.7764 312.408 58.9885C314.608 58.2794 316.589 57.8067 318.569 57.0975C331.991 55.2066 344.753 50.9518 357.954 48.5881C362.575 48.5881 366.976 47.6426 371.376 47.4062Z" fill="black"/>
<path d="M480 51.0906C484.871 50.6314 489.743 52.009 494.393 53.1571C506.793 54.7643 518.529 59.5861 530.486 62.8006C534.914 63.4894 538.457 66.4743 542 69C529.379 66.0151 516.757 63.2598 504.579 59.1269C497.493 57.29 490.629 54.5347 483.321 53.1571C482.14 52.6979 481.033 52.0091 480 51.0906Z" fill="black"/>
<path d="M373 65C374.32 65.1565 375.419 65.8607 376.299 67.1127C381.797 74.8595 389.054 81.4325 395.432 88.475C404.668 98.0998 412.805 108.898 422.041 118.758C428.199 126.035 435.017 132.843 441.174 140.12C452.39 153.736 462.286 168.525 472.842 182.845C475.042 185.427 477.241 188.244 479 191.296L477.9 192C470.643 184.723 465.365 175.802 459.207 167.586C451.51 157.492 444.693 146.693 435.896 137.538C428.639 130.026 422.041 121.81 415.004 114.298C408.846 107.959 404.008 100.447 397.631 94.3438C390.813 86.597 383.116 79.5545 376.958 71.1035C375.419 69.2255 373.44 67.5823 373 65Z" fill="black"/>
<path d="M343 66C347.419 68.1084 349.85 72.5594 353.165 75.6048C360.236 82.6328 365.981 90.5979 372.389 98.0944C382.554 108.871 392.056 119.881 401.779 130.892C401.779 131.36 402 132.531 402 133C395.15 126.675 389.183 119.178 382.554 112.619C370.843 100.671 361.12 86.8496 349.408 74.9021C347.198 72.0909 343.663 69.9825 343 66Z" fill="black"/>
<path d="M553.443 75C558.753 75.9322 563.4 79.1949 568.047 82.2246C578.669 89.4492 588.626 97.839 598.363 106.229C605.001 111.589 610.533 117.881 616.287 124.407C617.172 126.038 619.385 127.903 618.942 130C617.393 129.301 616.287 127.903 615.18 126.504C607.657 118.114 599.912 109.725 590.839 103.432C578.447 94.3432 566.498 84.322 553 76.8644C553.221 76.3983 553.443 75.4661 553.443 75Z" fill="black"/>
<path d="M536 88.2338C536.437 88.2338 537.53 88.2339 537.967 88C538.623 94.5487 541.028 100.63 542.995 106.711C548.023 119.34 551.521 132.672 555.237 146.003C563.981 173.601 571.414 201.667 579.065 229.499C580.158 234.411 582.344 239.088 583 244C578.628 240.258 578.628 233.475 576.442 228.096C575.567 224.588 574.474 221.079 573.6 217.337C569.665 204.006 566.386 190.441 562.451 176.876C560.484 170.093 558.516 163.31 556.549 156.528C555.456 153.487 554.581 150.213 553.488 147.172C550.647 137.115 548.023 127.058 544.744 117.235C543.87 115.208 543.141 113.181 542.558 111.154C539.935 103.67 536.656 96.1859 536 88.2338Z" fill="black"/>
<path d="M228.51 113.425C232.673 109.695 236.179 104.798 241 102C241 102.933 240.781 104.798 240.781 105.498C230.847 116.534 220.549 127.183 209.885 137.442C204.845 142.106 201.997 148.635 197.834 154.231C194.985 158.195 193.232 162.858 190.603 166.822C187.754 172.185 183.153 175.916 180.961 181.512C179.647 184.543 178.551 187.575 177.455 190.839C177.017 193.637 177.017 196.435 175.483 199C172.854 196.435 174.388 192.471 175.045 189.207C177.017 182.911 179.428 176.615 183.591 171.486C189.069 164.957 191.698 156.329 196.738 149.567C199.806 144.671 202.654 139.308 206.817 135.344C214.267 128.115 221.06 120.421 228.51 113.425Z" fill="black"/>
<path d="M566 106C566.672 106.466 567.567 107.166 568.239 107.399C571.373 119.993 574.507 132.587 577.194 145.413C579.657 157.307 583.015 168.968 585.254 180.862C588.836 199.753 593.09 218.643 596 238C595.552 237.3 594.433 235.901 593.761 235.201C588.388 207.216 583.687 178.996 576.522 151.477C573.388 136.318 569.358 121.159 566 106Z" fill="black"/>
<path d="M619 130C626.687 134.225 631.08 142.674 636.79 149.48C651.286 167.317 660.95 188.91 672.81 208.859C681.375 224.349 691.039 239.37 700.703 254.391C704.876 259.319 709.268 264.248 713.002 269.881C713.661 271.054 715.198 272.228 714.979 273.871C713.002 274.575 711.904 272.228 710.806 271.054C707.511 266.126 703.338 262.136 699.605 257.911C692.357 247.819 686.427 237.023 680.057 226.227C669.296 207.92 657.875 189.848 647.552 171.307C641.183 159.807 633.276 149.245 625.589 138.684C623.393 135.633 620.098 133.755 619 130Z" fill="black"/>
<path d="M218 140.082C221.949 139.613 225.679 141.253 229.409 142.659C239.721 146.876 250.252 150.156 260.344 155.311C271.095 160.231 282.503 163.511 293.473 167.728C299.836 170.305 306.857 172.179 313 175.694C309.709 176.631 306.857 175.225 304.005 174.054C289.744 168.899 275.483 164.448 261.441 158.591C249.594 152.968 237.307 148.75 225.24 143.83C222.607 142.659 219.536 142.659 218 140.082Z" fill="black"/>
<path d="M412 140C414.844 140.471 416.375 143.059 418.562 144.706C422.062 147.765 425.125 151.294 428.625 154.353C430.156 156 432.563 157.412 433 160C427.969 158.118 424.469 153.176 420.531 149.647C417.906 146.353 412.875 144.706 412 140Z" fill="black"/>
<path d="M201 163C216.606 164.146 231.773 166.896 246.94 171.021C262.326 174 277.053 179.042 292 183.396C292 183.854 291.78 184.542 291.56 185C281.01 182.708 270.459 179.042 259.908 176.521C245.841 173.771 231.993 170.333 217.705 167.813C212.21 166.667 206.495 166.667 201 165.292C201 164.604 201 163.687 201 163Z" fill="black"/>
<path d="M379.76 174C391.423 175.895 403.086 177.789 414.529 180.632C422.891 182.289 431.253 184.895 439.616 186.553C445.337 187.737 451.279 187.974 457 189.868C457 190.342 456.78 191.289 456.78 192C447.978 190.105 438.735 189.395 429.933 187.026C414.529 183 398.905 179.447 383.061 177.079C381.301 176.605 379.54 176.132 378 175.658C378.44 175.184 379.32 174.474 379.76 174Z" fill="black"/>
<path d="M444 174C448.354 175.846 452.708 178.846 455 183C450.417 181.615 446.292 178.154 444 174Z" fill="black"/>
<path d="M320.236 183.29C327.491 181.2 334.526 178.412 342 179.109C339.142 182.129 334.965 181.2 331.448 182.361C313.202 187.472 295.395 193.743 278.248 201.641C272.312 204.429 266.157 207.216 260.222 209.771C256.851 211.475 253.553 213.256 250.329 215.114C247.911 216.508 245.712 218.134 243.294 219.295C239.557 221.618 236.04 224.173 232.303 226.496C226.587 229.98 220.431 231.606 214.056 233C211.858 231.839 209.22 230.445 209 227.657C209.879 228.122 211.418 229.283 212.298 229.98C216.914 230.213 221.091 228.354 225.488 227.193C238.898 220.456 250.769 210.933 264.618 205.125C267.256 203.964 269.894 202.803 272.532 201.641C275.61 200.247 278.614 198.854 281.545 197.46C294.296 191.885 307.266 187.471 320.236 183.29Z" fill="black"/>
<path d="M338.002 187.365C351.474 185.971 365.167 184.344 378.639 185.273C384.602 186.203 390.786 185.738 396.749 186.9C400.724 187.365 404.92 188.527 409.117 188.527C409.337 188.992 409.779 190.154 410 190.618C408.969 191.083 407.939 191.47 406.908 191.78C383.498 188.527 359.425 188.759 335.793 192.245C322.542 194.569 309.733 198.984 297.144 203.4C283.23 208.28 271.083 217.343 257.611 223.153C256.139 223.927 254.593 224.702 252.973 225.477C243.698 230.822 235.968 238.258 227.575 244.997C222.496 249.645 214.987 250.342 208.582 249.877C202.619 247.321 194.227 246.624 191.576 239.42C187.601 229.66 183.405 219.899 178.546 210.371C177.883 208.047 177.221 205.724 177 203.4C178.472 203.4 179.503 204.097 180.092 205.491C184.288 213.857 188.264 222.223 191.576 231.054C193.564 236.166 196.214 242.209 201.956 243.138C206.153 243.835 209.686 248.018 214.103 246.624C217.858 245.927 221.612 245.23 224.483 242.673C234.863 234.075 245.244 225.244 257.611 219.899C263.795 217.266 269.832 214.167 275.721 210.604C282.568 206.188 289.635 202.703 297.144 199.681C310.395 194.337 323.867 189.456 338.002 187.365Z" fill="black"/>
<path d="M417 189C422.282 189 426.904 191.554 431.526 193.18C444.512 197.36 456.837 203.165 469.823 207.345C479.947 210.595 489.191 215.936 498.876 220.116C503.938 222.206 508.78 224.992 513.842 227.082C525.947 231.727 538.273 236.835 548.837 244.498C551.038 246.356 554.12 247.749 555 251C552.579 251 550.818 249.142 549.057 247.981C540.254 241.712 530.569 237.067 520.665 232.888C509 228.708 497.995 223.135 486.55 218.258C474.885 212.453 462.12 209.434 450.235 204.326C440.33 199.914 429.766 196.895 419.861 192.483C418.321 192.019 417.22 190.625 417 189Z" fill="black"/>
<path d="M481 202.523C481.221 199.697 483.654 201.581 485.202 202.052C486.529 202.523 488.077 203.229 489.626 203.936C494.934 205.82 500.242 207.468 505.329 209.823C509.531 211.707 513.733 213.591 517.714 215.71C529.436 221.598 540.937 227.249 552.216 234.079C559.073 238.318 566.592 241.615 573.006 246.56C578.757 250.799 584.949 254.096 590.921 257.864C596.45 261.396 602.201 264.928 607.951 268.696C612.153 271.522 616.577 274.584 620.558 277.881C620.558 278.587 621 279.529 621 280C616.798 277.881 613.038 274.584 609.057 271.993C600.431 266.577 591.806 261.161 583.18 255.98C574.997 251.741 568.141 245.383 559.736 241.615C545.581 233.294 531.205 225.523 516.608 218.301C507.098 213.12 497.367 209.352 487.414 205.584C485.202 204.642 482.991 203.7 481 202.523Z" fill="black"/>
<path d="M186.22 202C187.976 203.618 188.634 205.929 189.732 208.01C194.341 213.557 198.732 219.335 204 223.958C200.268 224.42 198.073 220.953 195.659 218.642C192.585 214.481 188.634 211.246 186 206.854C186.146 205.159 186.22 203.541 186.22 202Z" fill="black"/>
<path d="M433 227.459C433.447 227.229 434.342 227 434.789 227C437.474 232.274 445.079 235.485 450 231.357C450 232.045 450 233.421 450 234.109C449.329 234.568 448.211 235.485 447.763 235.944C441.724 236.402 434.566 234.109 433 227.459Z" fill="black"/>
<path fill-rule="evenodd" clip-rule="evenodd" d="M289.782 228.564C294.364 226.185 299.818 226.661 304.4 229.04C308.109 231.419 311.6 234.512 313.782 238.556C313.782 240.142 313.855 241.728 314 243.315C309.418 247.835 302.873 245.694 297.636 243.79C294.364 241.649 290.655 239.508 287.818 236.177C286.509 234.512 287.164 232.133 287.164 230.23C287.818 229.754 289.127 229.04 289.782 228.564ZM290.655 230.705C288.473 231.181 288.909 233.322 289.564 234.988C293.055 238.318 296.982 240.697 301.127 242.601C304.618 243.552 308.109 244.266 311.6 242.601C311.6 241.887 311.6 240.222 311.818 239.508C307.673 232.133 298.291 226.661 290.655 230.705Z" fill="black"/>
<path d="M364.165 228C365.859 229.6 367.553 231.429 369.247 233.257C369.882 233.257 371.365 233.486 372 233.486C371.788 234.171 371.365 235.314 371.153 236C367.341 235.543 363.106 232.571 364.165 228Z" fill="black"/>
<path d="M374.453 233C376.717 233.63 378.755 234.679 381.019 235.309C382.83 235.099 384.189 233.84 385.547 233.21C385.774 233.84 386 234.889 386 235.309C382.377 238.038 377.623 237.198 374 234.679C374.226 234.259 374.226 233.42 374.453 233Z" fill="black"/>
<path fill-rule="evenodd" clip-rule="evenodd" d="M479 239.709C481.845 235.475 487.318 235.005 491.039 237.592C495.635 239.238 501.107 239.238 504.39 243.237C506.36 246.059 503.077 248.411 501.326 249.822C495.416 252.174 489.068 250.763 483.815 247.706C480.97 246.059 479 243.237 479 239.709ZM481.845 239.003C481.627 239.709 481.627 241.59 481.408 242.296C485.566 247.235 492.133 249.587 498.043 248.411C499.794 247.47 503.296 247 502.858 244.413C496.729 239.944 488.85 240.179 481.845 239.003Z" fill="black"/>
<path d="M668.008 235C670.657 238.027 669.995 242.218 670.878 245.944C672.202 254.326 674.63 262.243 677.279 270.159C677.72 271.556 678.235 273.109 678.824 274.816C679.707 277.145 680.663 279.551 681.693 282.034C683.018 285.061 684.342 288.321 685.666 291.348C686.991 294.608 688.315 297.868 689.639 301.127C690.669 303.922 691.773 306.638 692.95 309.277C694.128 312.071 695.231 314.865 696.261 317.659C698.027 321.851 699.94 325.964 702 330C701.559 330 700.455 329.767 699.793 329.767C696.923 325.576 695.599 320.686 693.612 316.262C692.435 313.468 691.258 310.674 690.081 307.88C688.904 305.241 687.8 302.525 686.77 299.73C685.446 296.471 684.121 293.366 682.797 290.417C680.369 284.828 678.162 279.24 676.175 273.652C671.981 261.078 667.788 248.272 668.008 235Z" fill="black"/>
<path d="M684 245C686.9 247.35 687.123 251.344 688.462 254.634C693.146 268.732 697.831 282.831 701.623 297.164C703.185 303.508 705.192 309.617 707.2 315.727C708.315 318.546 709.431 321.366 710.546 324.186C711.661 326.301 712.554 328.65 713 331C712.331 330.53 711.215 329.59 710.546 329.355C709.654 327.162 708.762 324.969 707.869 322.776C704.077 314.082 701.4 305.153 698.946 295.989C695.154 281.421 690.023 267.087 685.562 252.519C684.892 250.169 684.223 247.585 684 245Z" fill="black"/>
<path d="M230.039 251.192C229.592 248.65 233.167 248.188 233.613 250.499C233.837 254.427 234.954 258.586 237.859 261.821C240.54 264.132 243.891 265.98 247.019 267.829C253.275 270.833 257.521 276.61 264 279.151C264 279.614 263.553 280.538 263.33 281C259.531 279.845 256.18 277.765 253.275 274.992C248.807 270.602 242.998 268.522 237.635 265.518C232.496 262.977 230.485 256.738 230.039 251.192Z" fill="black"/>
<path d="M284.213 257C287.273 259.108 285.743 264.026 288.585 266.133C290.552 266.368 292.3 266.133 294.049 266.133C295.798 271.988 300.169 276.672 305.852 279.014C309.35 280.419 313.284 280.887 317 281.824C312.191 284.634 306.29 281.824 301.918 279.482C297.546 277.14 294.268 273.159 292.738 268.241C291.863 268.475 290.333 268.944 289.459 269.412C288.803 268.944 287.273 268.475 286.617 268.007C284.432 264.962 283.557 260.981 284.213 257Z" fill="black"/>
<path d="M570 258.235C570.662 258.235 572.208 258 573.091 258C574.563 258.939 576.109 259.878 577.729 260.817C587.15 266.606 596.424 272.788 605.551 279.36C622.112 291.8 640.882 300.954 657.443 313.864C670.692 323.253 681.732 335.458 695.644 343.908C696.821 344.534 697.999 345.082 699.177 345.552C704.035 348.368 708.672 351.654 713.53 354.706C714.192 354.94 715.517 355.645 715.959 355.879C720.596 357.053 725.674 358.461 730.091 355.879C736.936 351.889 743.56 347.429 750.847 344.613C755.705 342.031 757.472 336.397 759.68 331.468C761.667 326.774 762.33 321.14 761.446 315.976C759.018 310.343 753.276 308.231 748.639 304.944C744.885 302.832 741.352 300.25 738.04 297.199C729.649 290.157 720.154 284.054 713.971 274.431C716.842 274.9 718.829 277.717 721.037 279.36C727.441 285.463 734.949 290.392 741.131 296.494C747.977 302.597 757.693 304.944 762.992 312.925C766.525 318.793 764.759 326.07 762.551 332.172C760.563 336.632 758.576 341.327 755.484 345.082C751.731 348.133 747.093 349.307 742.898 351.889C738.702 354.706 734.507 356.818 730.091 359.635C725.012 360.339 719.712 360.104 714.854 358.226C707.568 354.001 700.943 348.838 693.435 345.082C677.095 334.05 662.08 320.906 645.739 309.639C634.478 301.658 622.995 294.851 611.734 287.106C599.147 277.951 586.34 269.032 573.091 260.817C571.914 259.878 570.883 259.017 570 258.235Z" fill="black"/>
<path fill-rule="evenodd" clip-rule="evenodd" d="M397.068 267.315C405.682 264.942 414.957 266.603 423.791 266.129C424.454 266.366 425.558 267.315 426 267.789C426 269.055 426 270.32 426 271.586C420.92 277.755 412.749 277.518 405.903 276.331C402.369 275.62 398.614 275.382 395.743 273.01C393.977 270.874 395.743 268.976 397.068 267.315ZM397.068 270.162C397.952 271.586 399.277 272.298 400.602 273.247C404.798 273.959 409.215 274.908 413.632 274.67C417.608 274.908 422.908 273.247 424.233 268.501C420.258 268.027 416.503 268.264 412.528 268.264C407.228 268.501 401.927 267.789 397.068 270.162Z" fill="black"/>
<path d="M477 267C479.868 269.002 482.735 271.004 486.044 271.448C488.471 272.116 490.015 270.114 492 269.224C492 270.114 491.779 271.671 491.779 272.338C487.809 275.452 482.515 273.673 478.765 271.226C477.441 270.336 477.441 268.335 477 267Z" fill="black"/>
<path d="M544.878 270.621C546.003 269.463 547.128 267.61 548.929 268.073C549.379 270.158 547.578 271.316 546.678 272.938C542.852 273.169 538.801 272.938 537 268.999C539.701 269.231 542.177 269.926 544.878 270.621Z" fill="black"/>
<path d="M263 281.242C263.889 281 265.444 281 266.333 281C272.556 284.145 277.222 289.952 281 296C279.222 295.758 277.667 295.516 276.556 294.065C272.111 289.71 268.111 284.629 263 281.242Z" fill="black"/>
<path d="M283 295.004C285.632 295.004 288.923 294.772 290.458 297.788C293.31 302.891 297.477 307.299 302.961 309.155C306.69 309.619 310.639 308.691 314.148 310.083C315.611 310.237 316.561 311.088 317 312.635C311.516 312.403 306.032 313.562 300.768 312.635C294.406 310.547 289.581 305.211 287.168 298.716C285.705 298.097 284.316 297.556 283 297.092C283 296.396 283 295.468 283 295.004Z" fill="black"/>
<path d="M384.073 301C387.449 304.16 389.347 309.509 393.988 310.967C394.199 313.641 391.457 313.155 389.98 312.426C387.027 309.752 383.441 306.105 384.073 301Z" fill="black"/>
<path d="M650 301C662.198 308.674 672.621 318.674 684.819 325.884C687.923 327.744 691.028 329.605 694.133 331.233C697.903 334.023 703.891 335.651 705 341C700.343 338.209 696.573 334.488 691.694 332.628C677.944 325.419 666.411 315.186 653.77 306.116C651.996 304.954 650.222 303.326 650 301Z" fill="black"/>
<path d="M473 302C473.439 302.234 474.535 303.172 474.974 303.64C475.193 307.156 477.167 310.203 480.018 312.078C482.868 311.609 485.5 310.203 488.351 310.203C489.228 313.719 489.447 317.703 492.518 320.046C494.272 320.75 496.246 320.047 498 320.281C497.561 323.562 493.614 323.328 491.421 322.39C488.132 320.046 487.474 316.062 486.377 312.547C484.623 313.484 482.868 314.656 480.675 314.187C476.947 314.422 474.754 310.672 473 307.625C473 305.75 473 303.875 473 302Z" fill="black"/>
<path d="M321 313.607C322.994 313.148 324.988 312 326.982 312C333.407 313.607 336.509 320.266 342.269 323.251C347.144 326.466 353.347 323.252 358 326.466C356.006 329.681 352.683 326.237 349.802 327.614C346.036 328.762 342.269 327.155 338.946 325.318C334.736 322.563 332.078 318.2 327.647 315.904C325.431 314.985 321.665 316.592 321 313.607Z" fill="black"/>
<path d="M572.643 318C574.811 323.042 579.58 326.251 585 325.564C585 329.231 580.664 327.856 578.496 327.168C575.027 326.251 570.258 322.126 572.643 318Z" fill="black"/>
<path d="M585 324.508C587.139 329.52 594.41 326.262 593.982 321C592.485 321.752 590.988 323.005 589.705 324.257C588.422 324.257 586.283 324.508 585 324.508Z" fill="black"/>
<path fill-rule="evenodd" clip-rule="evenodd" d="M537.918 324.08C541.039 323.844 544.16 324.08 547.058 325.494C552.631 328.558 558.426 333.036 559.987 339.636C560.21 342.464 557.535 344.114 555.751 346C552.63 346 549.733 345.529 546.835 344.35C541.039 340.815 535.02 334.45 536.134 326.437C536.58 325.965 537.472 324.787 537.918 324.08ZM538.364 326.672C537.472 334.686 544.16 340.343 550.401 343.407C552.036 343.407 553.745 343.407 555.528 343.407C557.312 341.993 558.872 339.165 556.866 337.043C554.414 331.386 548.395 329.737 543.714 326.672C541.93 326.672 540.147 326.672 538.364 326.672Z" fill="black"/>
<path d="M730.299 342.497C737.327 336.878 745.673 331.961 750.725 324C753.36 324.234 751.164 326.81 750.725 327.746C745.014 335.005 737.547 339.922 730.299 344.838C726.126 344.604 719.757 346.478 718 341.561C721.953 342.965 726.126 342.731 730.299 342.497Z" fill="black"/>
<path d="M358 329.4C358.22 328.933 358.44 328.233 358.66 328C367.234 331.033 377.127 327.767 385.482 332.667C395.155 338.033 406.148 338.733 416.481 342.233C425.275 344.1 434.069 339.2 442.643 341.767C447.7 343.633 452.536 346.433 458.033 347.133C467.486 348.3 476.28 353.433 485.734 355.3C489.032 354.366 491.89 352.033 494.968 350.4C495.408 354.6 491.23 356.466 488.152 357.866C481.997 358.8 476.5 354.6 470.564 352.733C464.408 349.933 457.813 351.1 451.437 349.233C446.161 347.6 441.324 344.1 435.608 343.867C431.211 344.567 426.594 345.267 422.197 345.967C416.481 345.5 410.984 342.933 405.488 341.533C399.112 339.9 392.957 338.967 386.581 337.333C381.964 335.933 377.787 333.133 372.95 332.9C368.113 331.967 363.496 332.2 358.879 330.567C358.659 330.333 358.22 329.633 358 329.4Z" fill="black"/>
<path d="M505 354C505.652 354 507.174 354.228 508.043 354.456C510.652 357.194 513.478 360.16 516.739 362.441C520.87 362.897 524.565 360.844 528.261 359.931C530.652 360.16 532.391 362.213 534.348 363.581C536.232 363.429 538.116 363.429 540 363.581C538.043 368.372 531.739 364.95 528.913 362.669C525.652 363.81 522.174 364.95 518.696 365.406C513.261 364.266 508.913 360.16 505 356.51C505 355.825 505 354.456 505 354Z" fill="black"/>
<path d="M637.637 362.841C640.051 361.718 641.586 359.471 642.903 357C643.195 358.348 643.561 359.771 644 361.268C638.515 368.457 627.983 368.906 620.523 365.087C617.013 362.841 613.502 366.435 609.991 367.109C604.287 368.008 598.363 368.457 592.658 367.334C592.439 366.884 592 365.986 592 365.536C597.266 364.863 602.751 364.413 608.017 363.29C611.747 362.616 615.257 359.92 619.207 360.819C622.498 361.942 625.57 363.964 629.08 363.964C631.932 364.189 634.785 363.515 637.637 362.841Z" fill="black"/>
<path d="M544 362.371C545.609 361.876 547.29 361.876 549.045 362.371C551.019 363.61 552.994 364.848 555.187 365.838C558.478 366.829 561.548 364.353 564.839 365.343C569.226 366.086 573.394 367.324 578 367.572C577.781 368.067 577.342 369.058 577.342 369.801C573.174 370.296 569.007 369.801 565.058 369.058C561.548 368.067 557.819 371.039 554.31 369.305C550.8 367.572 547.071 365.343 544 362.371Z" fill="black"/>
<path fill-rule="evenodd" clip-rule="evenodd" d="M48.9469 412.251C37.7047 409.911 26.2421 407.337 15 404.763C15.6613 401.487 15.6613 397.977 16.1022 394.467C17.4248 391.19 18.7474 387.68 21.1722 384.872C21.1722 384.404 21.3926 383.468 21.3926 383C29.5487 384.404 37.4843 386.744 45.6403 388.382C227.719 432.376 410.238 475.2 592.316 519.895C594.961 520.831 598.047 520.363 600.693 522.002C600.693 523.172 600.693 524.576 600.913 525.746C601.354 528.32 600.031 530.894 598.929 533C594.52 533 590.553 530.894 586.144 530.66C582.176 529.256 577.988 529.256 574.241 527.852C569.611 527.384 565.423 525.512 561.015 525.278C557.488 523.874 553.52 523.874 549.993 522.704C546.686 521.767 542.939 521.767 539.632 520.363C535.224 519.895 531.036 518.257 526.627 517.789C523.32 516.619 520.014 516.385 516.707 515.449C487.61 509.365 458.513 502.813 429.636 496.494C427.873 496.26 426.109 496.027 424.346 495.09C384.006 486.9 344.108 477.306 303.768 468.881C300.903 467.711 297.817 467.711 294.951 466.775C213.17 448.757 130.948 430.504 48.9469 412.251ZM18.0861 402.423C21.6131 397.275 24.4787 391.19 24.2582 384.872C22.7152 386.042 20.9517 387.446 20.5108 389.318C18.3065 393.296 16.984 397.743 16.984 402.189C17.2044 402.423 17.8657 402.423 18.0861 402.423ZM39.6886 408.273C39.6886 408.273 39.7621 408.195 39.9091 408.039C42.5543 409.209 45.4199 409.209 48.2855 410.145C58.8663 412.251 69.4471 414.825 80.028 416.931C83.3345 418.335 87.0819 417.867 90.3884 419.271C100.749 421.144 110.889 423.952 121.249 426.058C124.996 427.228 128.744 426.994 132.271 428.398C156.739 433.546 180.987 439.396 205.455 444.076C227.498 449.459 249.762 453.905 271.805 459.053C380.7 482.688 489.594 506.557 598.268 531.362C598.562 528.866 598.782 526.292 598.929 523.64C596.064 521.768 592.316 522.469 589.23 521.065C556.826 513.343 524.202 505.855 491.578 497.665V497.899C386.211 472.86 280.843 447.353 175.696 421.846C173.492 420.91 170.626 421.377 168.642 419.973C139.104 413.187 109.566 405.699 80.2484 398.913C62.1728 394.7 44.0973 389.786 26.0217 386.042C25.8013 392.36 23.3765 398.679 19.4087 403.593C26.2421 405.231 33.0756 406.401 39.6886 408.273Z" fill="black"/>
<path fill-rule="evenodd" clip-rule="evenodd" d="M666.678 506.251C666.237 507.189 665.136 508.362 663.814 507.893C554.322 474.343 445.05 439.854 335.557 405.366C257.789 380.966 180.021 356.096 102.253 331.931C99.1686 330.992 95.864 330.054 93 328.412C95.2031 327.239 94.3218 324.423 94.9827 322.312C95.2031 318.089 97.6265 314.335 100.05 311.05C100.931 310.346 101.592 309.173 101.812 308C110.845 310.112 119.216 313.631 128.029 316.446C304.935 375.804 482.282 434.224 659.188 494.051C662.052 495.458 665.356 495.693 668 497.335C667.559 500.151 668.441 503.67 666.678 506.251ZM664.695 506.486C665.283 503.983 665.723 501.402 666.017 498.743C655.442 494.52 644.427 491.47 633.632 487.716C494.398 441.731 355.385 394.574 216.372 348.119C179.58 335.919 143.01 323.25 105.998 311.285C105.557 316.446 103.354 320.904 100.931 325.127C100.05 326.222 99.0952 327.239 98.0671 328.177C259.992 379.089 421.918 429.297 583.843 480.443C610.72 489.358 637.818 497.57 664.695 506.486ZM99.3889 323.719C101.812 319.496 104.236 315.039 104.456 310.112C102.694 311.05 101.151 312.458 100.27 314.335C97.6265 318.089 96.0843 322.781 95.864 327.473C97.1859 326.535 98.5076 325.362 99.3889 323.719Z" fill="black"/>
</svg>
