<svg width="780" height="580" viewBox="0 0 780 580" fill="none" xmlns="http://www.w3.org/2000/svg">
<g clip-path="url(#clip0_186_9193)">
<rect x="164" y="63" width="450" height="450" rx="225" fill="#F0E9DA"/>
<path d="M152.978 412.821C157.526 410.277 161.787 407.556 166.786 405.889C168.589 405.22 170.489 406.002 171.569 407.469C173.784 410.636 175.125 414.253 177.108 417.474C179.09 420.695 181.415 424.327 181.595 428.218C180.066 430.052 178.195 431.475 175.982 432.486C168.238 436.026 161.219 441.608 156.783 448.796C154.421 452.3 155.449 457.712 151.543 459.859C147.172 462.115 142.801 464.371 138.034 465.982C132.338 467.812 126.916 470.807 121.22 472.637C114.473 475.206 107.944 478.706 101.306 481.741C95.0778 484.433 89.4103 488.469 83.182 491.161C75.2054 494.756 67.6801 499.228 59.2653 500.96C53.9373 501.228 50.7648 496.075 47.9758 492.552C45.1999 488.042 41.4951 483.751 39.4837 478.325C41.2713 474.464 45.2322 472.55 48.6738 470.512C60.4053 463.086 72.0141 456.179 84.1969 449.63C106.992 437.145 129.896 425.127 152.978 412.821Z" fill="#333F72"/>
<path d="M682.605 203.834C699.731 195.459 716.696 186.397 734.377 179.342C742.298 175.547 750.72 172.842 758.749 169.506C760.999 169.702 762.055 172.113 763.182 173.781C764.524 176.366 766.849 178.962 766.853 182.104C766.41 184.383 763.858 184.983 762.341 185.822C751.28 190.839 740.058 195.168 729.282 200.358C721.345 205.124 712.674 208.853 704.111 213.041C696.762 217.185 689.019 220.696 681.33 224.437C673.927 228.352 665.915 230.718 658.404 234.174C655.529 233.4 653.453 229.779 655.003 226.998C654.061 225.769 653.196 224.522 652.409 223.256C653.138 221.151 652.902 218.065 655.454 217.465C664.767 213.343 673.293 207.956 682.605 203.834Z" fill="#333F72"/>
<path d="M193.717 301.78C195.754 299.119 197.453 296.052 200.448 294.379C204.252 292.03 208.664 291.236 213.184 290.901C213.926 290.969 215.41 291.105 216.098 290.944C216.206 291.403 216.139 292.147 216.017 292.66C209.271 292.79 201.54 293.88 197.629 299.89C194.649 304.713 190.198 308.426 184.747 309.949C182.17 310.312 180.201 312.23 180.053 314.689C179.258 318.513 179.894 322.243 179.787 325.906C179.274 325.784 178.303 325.769 178.019 325.594C177.289 320.431 175.83 314.227 179.431 309.986C183.991 306.732 190.17 306.25 193.717 301.78Z" fill="black"/>
<path d="M229.18 284.766C231.615 283.698 234.205 284.331 236.74 284.729C240.814 281.288 245.914 279.096 251.215 279.837C254.842 280.723 258.172 282.425 261.678 283.836C264.982 282.315 268.297 279.797 272.044 280.159C276.42 281.117 280.434 283.652 283.986 286.295C283.578 286.639 283.282 287.453 283.106 287.743C280.062 286.223 277.195 284.413 274.207 283.128C271.506 282.024 268.785 282.912 266.351 283.98C269.661 287.673 270.703 293.142 269.959 298.284C269.496 298.393 268.681 299.081 268.274 299.425C268.183 296.963 268.324 294.446 268.233 291.983C267.624 289.394 267.136 286.28 264.027 285.52C261.472 287.114 258.785 288.49 255.965 289.65C256.503 287.785 257.956 286.698 259.41 285.611C256.477 284.562 253.786 282.462 250.501 281.992C245.024 281.54 240.774 285.271 236.081 287.119C233.778 286.667 230.891 286.848 229.18 284.766Z" fill="black"/>
<path d="M216.919 301.683C216.234 300.888 215.531 300.018 214.81 299.073C215.329 297.04 215.901 295.233 215.894 293.085C212.489 295.557 211.931 301.661 216.53 303.208C216.424 302.755 216.736 301.965 216.919 301.683Z" fill="black"/>
<path d="M231 288C231.649 287.848 233.215 287.713 233.916 287.782C234.878 288.957 235.458 290.454 236.039 291.952C233.832 291.304 232.498 289.516 231 288Z" fill="black"/>
<path d="M365 225C367.304 224.459 369.536 225.674 371.895 225.368C374.319 224.301 376.402 222.818 378.882 221.987C383.094 220.251 388.017 222.574 392.119 220.367C395.354 218.613 398.699 217.33 402.442 216.699C406.35 216.774 411.365 215.348 413.919 218.972C410.407 219.549 406.738 218.423 403.281 219.235C398.792 219.793 395.263 222.362 391.281 224.043C392.517 227.232 392.426 230.982 391.017 234.295C390.851 233.588 390.343 232.465 389.947 231.813C390.195 229.766 389.982 227.828 390 225.836C389.945 225.6 389.318 225.002 389.207 224.531C385.815 224.582 382.487 223.873 379.03 224.685C375.979 225.154 373.482 227.977 370.375 228.21C371.174 228.851 372.05 229.474 373.003 230.078C373.415 231.141 373.886 232.107 374.414 232.977C374.009 233.321 373.318 233.484 372.912 233.827C371.778 232.106 370.524 230.909 369.214 229.477C369.564 228.898 369.896 228.24 370.209 227.504C368.135 227.991 366.134 226.722 365 225Z" fill="black"/>
<path d="M356.11 235.313C357.608 233.462 359.466 232.109 361.682 231.255C360.58 233.763 358.512 235.248 357.014 237.099C355.571 239.188 354.469 241.695 352.06 242.761C352.246 240.468 353.516 238.671 354.841 237.11C354.958 236.583 355.707 235.657 356.11 235.313Z" fill="black"/>
<path d="M494.747 174.093C500.105 168.687 506.378 164.041 514.11 162.468C515.793 162.317 517.723 161.131 519.322 162.707C516.282 164.397 512.862 164.469 509.589 166.214C502.881 169.01 496.089 173.534 493.082 180.583C491.23 184.19 490.417 188.041 489.371 191.946C488.96 192.286 488.138 192.967 487.495 193.363C487.081 186.385 490.375 179.512 494.747 174.093Z" fill="black"/>
<path d="M337.719 249.196C339.315 247.598 340.966 246.232 342.617 244.866C342.905 245.043 343.949 245.287 344.237 245.463C336.808 251.612 333.809 260.876 330.935 269.623C330.133 272.502 328.233 274.905 327.719 277.961C326.784 285.518 325.04 292.776 323.062 300.089C321.852 300.536 320.661 301.061 319.487 301.663C318.42 299.223 322.268 298.808 322.244 296.612C323.397 289.982 325.305 283.42 325.881 276.436C328.88 267.171 332.003 257.388 337.719 249.196Z" fill="black"/>
<path d="M197.423 316.798C198.767 316.245 200.451 316.086 201.234 317.325C202.98 319.523 204.725 321.722 205.825 324.309C210.145 322.819 215.068 322.849 218.943 320.515C221.051 316.937 216.087 313.598 218.428 309.965C220.491 313.511 222.014 317.896 220.53 322.039C215.618 324.142 210.028 325.456 204.565 326.265C203.412 323.453 201.793 320.751 199.582 318.662C198.957 318.097 197.994 317.138 197.423 316.798Z" fill="black"/>
<path d="M185.851 330.871C186.286 327.447 187.478 324.081 190.109 321.564C191.185 322.973 190.039 324.429 189.364 325.774C188.506 327.4 188.171 329.139 187.837 330.879C188.654 333.298 191.109 333.195 193.353 332.194C192.866 335.393 189.547 334.987 187.402 334.304C186.807 333.178 186.29 332.034 185.851 330.871Z" fill="black"/>
<path d="M210.115 312.656C212.222 311.339 214.329 310.022 216.788 309.17C215.627 312.456 212.542 313.729 209.916 314.894C210.023 314.321 210.008 313.229 210.115 312.656Z" fill="black"/>
<path d="M351.916 251.894C352.231 250.45 351.929 248.238 353.482 247.417C355.286 248.591 353.313 251.337 351.916 251.894Z" fill="black"/>
<path d="M223.906 310.059C229.094 307.1 234.679 304.793 239.978 302.306C241.63 303.077 243.146 303.964 244.525 304.965C247.391 307.771 249.584 313.966 245.27 316.471C245.181 314.006 245.899 311.849 245.81 309.385C245.013 308.081 243.807 307.122 242.778 305.873C242.202 305.511 241.228 304.497 240.653 304.135C235.355 306.623 229.315 308.042 224.582 311.888C224.217 313.465 224.085 314.987 223.377 316.147C222.746 315.55 221.894 314.011 221.495 313.359C222.203 312.198 223.007 311.098 223.906 310.059Z" fill="black"/>
<path d="M346 252C349.025 251.985 353.2 254.715 351.907 257.803C349.716 255.998 347.525 254.193 346 252Z" fill="black"/>
<path d="M427.029 215.124C430.081 213.418 432.351 217.828 435.444 217.348C440.807 217.077 446.636 216.695 451.724 219.454C456.923 222.682 464.196 223.197 467.498 228.847C468.228 230.901 470.525 233.327 468.229 235.102C466.109 228.185 459.275 225.342 453.128 223.326C454.587 227.432 455.277 232.461 453.298 236.633C452.134 236.577 450.952 236.443 449.751 236.231C450.397 235.832 451.923 234.979 452.569 234.58C452.746 230.09 452.345 225.24 449.718 221.409C445.496 219.188 440.601 219.349 435.995 219.69C432.379 220.046 429.326 217.55 427.029 215.124Z" fill="black"/>
<path d="M515.187 178.857C514.072 176.084 516.778 173.814 518.867 172.856C519.272 175.563 516.358 176.948 515.187 178.857Z" fill="black"/>
<path d="M534.518 165.203C535.755 163.196 538.559 164.743 540.246 163.612C544.477 161.882 548.148 158.813 552.816 158.942C557.539 159.303 562.126 161.167 566.672 161.815C567.366 161.651 568.346 161.666 568.863 161.79C571.403 161.52 573.866 161.268 576.252 161.034C584.894 161.455 592.681 165.508 600.359 169.097C604.77 171.247 609.779 171.786 614.19 173.936C619.799 177.03 622.771 183.441 627.266 188.023C629.418 190.949 632.795 192.852 635.179 195.723C631.941 196.484 629.733 193.326 627.391 191.67C622.434 187.197 618.999 180.895 613.689 176.995C608.651 174.257 602.84 173.416 597.748 170.446C591.28 166.818 584.46 163.763 577.097 162.552C572.538 162.887 567.79 164.493 563.135 163.381C559.746 162.462 556.18 161.829 552.614 161.196C546.163 160.751 540.985 168.831 534.518 165.203Z" fill="black"/>
<path d="M366.722 249.421C369.418 245.071 372.93 241.024 378.044 239.575C381.044 238.622 384.264 238.609 387.374 238.126C387.485 238.596 387.415 239.355 387.291 239.88C383.476 240.529 379.606 240.942 375.901 242.061C373.358 243.897 371.45 246.328 369.487 248.524C368.334 249.951 367.376 251.498 366.611 253.165C368.199 256.756 371.737 259.146 375.054 260.597C380.748 259.506 386.333 257.946 391.406 255.268C392.664 253.237 393.867 250.972 394.255 248.403C392.693 247.036 391.132 245.668 389.211 244.88C389.667 245.764 390.344 247.588 390.799 248.472C390.274 248.347 389.224 248.099 388.699 247.974C388.367 246.565 388.114 245.138 387.94 243.692C391.354 242.394 394.242 245.185 395.844 247.782C396.673 251.304 394.115 254.135 392.788 256.925C387.355 260.184 380.789 260.736 375.081 262.821C370.769 261.356 366.651 258.607 365.076 254.021C365.201 253.496 365.574 251.921 365.699 251.396C364.759 251.617 363.114 252.004 362.229 252.459C362.202 251.64 362.174 250.82 362.147 250.001C361.567 249.642 360.751 249.338 360.171 248.978C362.355 247.722 364.566 248.689 366.722 249.421Z" fill="black"/>
<path d="M170.817 343.563C172.271 341.273 173.508 338.061 176.34 337.395C176.448 337.857 176.847 338.494 176.901 338.724C171.468 346.332 168.176 355.628 169.348 364.849C169.655 367.211 169.962 369.574 169.742 371.817C169.161 371.467 168.472 370.655 167.892 370.304C165.775 361.305 166.781 351.816 170.817 343.563Z" fill="black"/>
<path d="M248.404 304.717C249.065 303.367 250.296 302.361 251.971 302.207C256.037 300.773 260.601 300.418 264.61 301.865C265.625 303.06 266.818 303.974 267.191 305.559C268.149 309.635 270.445 313.157 271.814 316.897C272.134 318.256 271.473 319.606 270.189 320.385C270.084 317.861 269.474 315.615 268.359 313.647C266.687 310.695 265.888 307.299 264.857 303.957C259.548 301.143 253.841 303.918 248.404 304.717Z" fill="black"/>
<path d="M391.093 239.649C392.27 236.429 394.636 234.156 397.788 233.17C397.897 233.635 397.658 234.672 397.593 235.424C395.87 236.319 394.372 237.489 393.1 238.932C393.626 243.224 398.634 244.991 398.702 249.391C395.068 247.301 392.71 243.44 391.093 239.649Z" fill="black"/>
<path d="M532.684 169.664C536.16 169.567 536.357 173.595 537.655 175.927C538.954 175.781 540.288 175.787 541.658 175.945C540.214 177.243 538.373 177.915 537.746 179.501C536.859 182.106 538.631 184.326 539.639 186.486C541.48 185.814 543.558 185.086 545.667 185.549C546.644 186.518 544.963 187.872 543.909 187.64C539.723 187.905 535.75 189.078 532.045 191.387C531.938 190.932 531.487 190.079 531.38 189.625C533.326 188.689 535.272 187.752 537.217 186.815C536.51 185.224 535.881 183.614 535.332 181.985C535.431 180.284 535.424 178.129 537.449 177.174C534.6 175.686 534.509 172.112 532.684 169.664Z" fill="black"/>
<path d="M405.044 231.188C406.611 230.086 408.236 231.171 409.536 231.844C410.893 234.704 412.251 237.564 413.392 240.475C413.339 241.221 413.45 242.662 413.343 243.176C413.181 243.459 412.532 243.612 412.315 243.662C411.443 239.955 410.355 236.298 408.078 233.409C406.995 232.686 405.983 231.945 405.044 231.188Z" fill="black"/>
<path d="M424.083 223.981C427.761 225.81 427.377 230.553 429.379 233.756C431.546 234.471 434.005 235.362 436.354 235.79C440.469 236.292 444.039 234.474 448.045 234.512C445.513 237.556 440.87 236.933 437.264 237.535C434.15 237.042 430.799 236.605 427.886 234.841C425.884 231.638 424.719 227.749 424.083 223.981Z" fill="black"/>
<path d="M221 320C223.403 320.8 225.523 321.44 228.007 321.538C233.574 321.14 238.431 317.724 243.644 315.816C241.159 320.95 234.061 322.163 228.646 323.208C225.877 322.948 221.994 323.179 221 320Z" fill="black"/>
<path d="M509.263 184.763C510.649 186.173 510.591 188.17 510.478 189.932C509.947 193.281 508.915 196.747 507.218 199.625C506.084 195.924 508.67 192.341 508.592 188.64C508.63 187.309 508.854 186.016 509.263 184.763Z" fill="black"/>
<path d="M332.436 279.698C331.108 277.254 330.62 274.111 332.021 271.527C333.056 270.95 334.25 270.335 335.603 269.683C335.715 270.158 336.176 271.052 336.288 271.527C335.215 271.946 334.161 272.444 333.125 273.022C333.106 274.362 333.166 275.685 333.305 276.988C333.836 277.114 335.026 276.834 335.795 276.904C336.074 278.091 335.29 279.027 335.038 280.089C334.506 279.963 332.968 279.823 332.436 279.698Z" fill="black"/>
<path d="M478.985 207.737C481.39 204.271 484.264 200.695 488.111 198.1C488.453 198.502 489.03 198.85 489.553 198.969C484.494 203.783 479.543 209.056 477.135 215.664C473.754 221.293 471.292 227.672 471.573 234.132L470.326 235.15C470.111 234.234 469.914 232.346 469.699 231.43C470.499 226.408 471.768 221.276 474.246 217.068C476 213.997 476.889 210.405 478.985 207.737Z" fill="black"/>
<path d="M296.007 290.03C299.841 289.848 303.952 286.726 307.685 289.203C311.364 291.454 314.92 294.213 317.259 297.976C318.375 299.631 316.026 299.944 315.3 298.916C311.92 295.876 308.662 292.328 304.348 290.467C301.822 291.06 297.374 293.783 296.007 290.03Z" fill="black"/>
<path d="M545.006 175.026C549.462 173.732 553.828 174.185 558.14 174.405C560.734 174.781 563.638 174.345 565.739 175.824C562.288 177.128 564.574 181.521 564.703 184.202C564.888 187.117 563.538 189.9 560.231 189.69C560.121 189.223 560.139 188.233 560.267 187.71L561.856 188.076C562.111 187.03 562.445 185.965 562.859 184.882C562.492 182.257 562.07 179.398 561.466 176.828C558.762 175.984 555.857 176.42 553.026 176.099C550.542 176.19 548.173 176.418 545.92 176.783C545.811 176.316 545.353 175.437 545.006 175.026Z" fill="black"/>
<path d="M288.37 298.574C288.53 295.037 293.661 296.831 296.177 296.99C296.969 299.303 296.642 302.129 296.495 304.664C296.371 305.192 296.594 306.14 296.526 306.906C296.51 308.243 296.144 309.495 295.427 310.663C295.26 309.953 294.691 308.587 294.468 307.639C294.591 307.11 294.604 306.108 294.671 305.342C294.795 304.813 294.807 303.81 294.64 303.1C294.849 301.884 295.078 300.747 295.325 299.689C293.538 297.36 290.596 298.551 288.37 298.574Z" fill="black"/>
<path d="M344.474 271.52C349.524 268.632 354.357 264.823 360.563 264.823C355.794 267.888 350.139 269.217 345.812 273.149C345.168 275.487 345.366 278.357 343.989 280.624C342.38 277.843 343.486 274.425 344.474 271.52Z" fill="black"/>
<path d="M524 186C527.299 186.509 529.377 189.102 530.584 192.157C529.423 193.457 528.204 194.514 526.985 195.571C526.527 193.624 527.746 192.567 528.155 191.187C526.945 189.16 525.21 188.027 524 186Z" fill="black"/>
<path d="M200.374 343.841C200.196 340.109 203.621 337.795 206.329 336.404C207.287 335.843 208.173 335.97 208.987 336.785C205.615 338.332 203.079 341.444 200.374 343.841Z" fill="black"/>
<path d="M496.532 205.515C496.252 200.128 501.775 197.408 506.682 196.255C504.301 198.711 500.382 199.869 498.627 202.889C497.286 205.575 501.349 208.176 498.915 210.407C498.026 208.719 497.231 207.089 496.532 205.515Z" fill="black"/>
<path d="M218.558 334.291C218.693 333.785 219.498 332.885 219.686 332.604C221.788 336.14 223.273 340.295 223.208 344.34C223.525 345.688 222.532 346.869 221.434 347.602C221.581 342.826 220.766 338.277 218.558 334.291Z" fill="black"/>
<path d="M188.687 350.922C188.93 349.926 189.114 349.022 189.241 348.209C190.996 347.562 192.767 345.972 194.194 347.984C192.908 348.6 191.623 349.215 190.337 349.83C191.312 351.948 192.27 353.992 193.21 355.963C196.389 354.277 198.576 351.415 200.207 348.215C201.408 350.28 200.193 352.209 199.151 353.862C197.259 355.95 194.705 357.254 192.099 358.336C190.794 355.826 189.714 353.263 188.687 350.922Z" fill="black"/>
<path d="M402.303 249.287C404.246 248.151 406.291 247.444 408.518 246.468C409.965 246.355 411.362 246.026 412.759 245.698C412.86 246.127 412.829 247.04 412.697 247.524C409.104 247.916 405.865 249.809 402.303 249.287Z" fill="black"/>
<path d="M568.502 172.732C567.136 170.002 570.904 170.642 572.388 170.802C575.87 171.255 580.209 171.253 582.258 174.84C577.692 173.879 573.07 172.676 568.502 172.732Z" fill="black"/>
<path d="M249 324C251.398 325.783 253.912 328.061 256.959 327.345C259.184 327.343 261.648 325.2 263.224 327.698C259.298 328.881 254.904 330.174 250.983 328.227C250.459 327.047 249.525 325.18 249 324Z" fill="black"/>
<path d="M393.082 257.347C394.622 256.46 396.279 256.07 398.112 256.427C399.231 258.002 402.479 260.126 400.284 262.479C399.814 261.54 398.931 259.91 398.518 259.219C398.165 258.777 397.101 258.502 396.747 258.06C395.385 258.643 393.728 259.032 393.082 257.347Z" fill="black"/>
<path d="M510.094 202.398C512.92 201.314 515.888 200.827 518.761 199.941C518.565 203.139 513.744 202.801 511.32 203.581C511.002 203.235 510.412 202.744 510.094 202.398Z" fill="black"/>
<path d="M227.726 336.306C228.371 335.916 229.481 335.417 230.179 335.253C230.57 335.875 231.354 337.119 231.799 337.967C231.048 337.905 230.064 337.898 229.546 337.782C230.13 340.263 230.427 342.574 230.546 345.164C231.064 345.281 232.28 345.233 232.798 345.349C234.659 344.912 237.079 342.677 238.361 344.994C235.908 346.047 232.864 347.714 230.346 346.401C227.975 343.626 228.289 339.744 227.726 336.306Z" fill="black"/>
<path d="M246.286 328.818C247.545 329.308 248.254 330.242 248.415 331.618C249.098 334.523 249.422 337.983 248.143 340.877C245.532 342.276 242.963 343.509 240.437 344.574C240.1 344.181 239.89 343.288 239.785 342.841C242.001 341.848 244.503 341.025 246.561 339.362C247.354 337.526 246.934 335.739 246.978 333.842C246.593 332.204 246.362 330.529 246.286 328.818Z" fill="black"/>
<path d="M345 282C348.271 281.231 350.247 284.393 352.188 286.354C351.445 286.689 350.744 286.854 350.085 286.848C348.432 285.061 346.599 283.558 345 282Z" fill="black"/>
<path d="M551.84 193.158C551.131 191.13 550.148 188.924 549.44 186.897C551.747 186.842 555.098 186.298 556.575 188.633C555.036 188.994 553.335 188.663 551.853 188.28C553.11 190.666 553.873 192.924 554.031 195.568C553.751 197.34 554.075 199.701 552.205 200.628C552.102 198.215 552.218 195.75 551.84 193.158Z" fill="black"/>
<path d="M203 351C205.071 350.513 207.213 351.362 209.464 351.644C211.692 351.48 213.997 351.299 216.378 351.1C216.499 351.613 216.679 352.381 216.57 352.947C212.017 353.206 206.846 354.962 203 351Z" fill="black"/>
<path d="M490.711 215.922C495.31 213.405 500.517 212.421 505.543 211.718C506.767 211.67 507.811 211.903 508.962 212.59C510.186 212.542 511.592 212.212 512.146 213.518C513.574 217.49 517.687 221.31 516.251 225.716C514.013 221.456 511.594 217.477 509.409 213.443C503.648 213.121 497.792 214.497 492.49 217.179C493.61 221.942 495.145 226.368 496.734 231.02C500.823 230.538 504.485 228.242 508.862 227.931C508.968 228.385 508.894 229.12 508.766 229.629C504.55 230.62 500.206 232.119 495.99 233.11C494.285 231.117 493.592 228.169 492.771 225.729C491.79 222.609 490.755 219.262 490.711 215.922Z" fill="black"/>
<path d="M372.42 272.726C372.837 272.378 373.198 271.794 373.615 271.446C375.339 274.539 373.409 277.991 371.784 280.621C371.075 280.788 369.713 281.358 369.06 281.761C370.393 278.949 372.199 276.026 372.42 272.726Z" fill="black"/>
<path d="M380 271C381.336 270.857 382.629 270.896 383.88 271.116C384.051 271.846 384.638 273.249 384.81 273.979C384.266 273.85 383.235 273.835 382.934 273.649C381.894 272.866 380.916 271.983 380 271Z" fill="black"/>
<path d="M413.222 256.946C413.877 256.542 415.423 255.68 416.077 255.277C417.525 255.768 418.912 256.357 420.239 257.043C424.317 260.575 425.874 267.195 421.863 271.381L420.401 270.477C423.103 267.097 422.882 261.91 419.445 258.976C418.053 257.307 415.338 257.446 413.222 256.946Z" fill="black"/>
<path d="M512.108 212.71C513.308 210.535 514.886 208.507 516.841 206.628C517.421 209.095 515.239 212.921 512.108 212.71Z" fill="black"/>
<path d="M296.636 313.979C297.699 313.161 299.681 314.115 299.283 315.627C298.774 317.733 295.049 315.771 296.636 313.979Z" fill="black"/>
<path d="M580.528 187.315C582.803 185.285 582.736 181.81 583.311 178.932C584.081 180.081 584.773 181.248 585.385 182.434C583.873 188.773 577.385 192.042 571.583 192.907C570.197 193.399 569.04 193.089 568.111 191.978C572.435 191.211 576.593 189.735 580.528 187.315Z" fill="black"/>
<path d="M268.799 330.959C269.053 329.887 268.658 328.207 270.152 328.109C272.337 329.875 270.689 332.541 269.886 334.503C268.547 336.337 264.39 339.087 263.417 336.023C265.347 334.556 268.462 333.824 268.799 330.959Z" fill="black"/>
<path d="M363.401 284.15C363.804 283.818 365.014 282.824 365.645 282.439C365.016 285.902 362.02 288.501 362.408 292.199C365.11 293.459 367.97 295.392 370.985 294.921C374.193 293.22 377.487 289.84 376.817 285.971C377.273 285.864 377.904 285.479 378.307 285.147C378.466 285.821 379.01 287.114 379.344 287.509C378.067 292.309 373.915 296.127 369.076 297.027C365.69 295.928 361.166 295.096 360.671 290.949C360.827 288.544 361.948 286.15 363.401 284.15Z" fill="black"/>
<path d="M539.461 201.506C539.926 201.397 540.799 200.938 541.264 200.828C542.119 203.419 540.712 205.78 539.537 208.086C534.807 213.004 528.808 216.698 522.131 217.505C520.238 217.104 518.502 216.328 516.923 215.176C520.233 214.652 523.764 216.107 526.792 214.38C532.144 212.107 539.65 208.567 539.461 201.506Z" fill="black"/>
<path d="M316.913 308.501C317.088 308.214 317.79 307.069 317.911 306.551C320.294 313.587 322.677 320.622 327.022 326.707C328.04 327.938 328.422 329.563 328.52 331.01C328.032 338.231 332.486 344.78 336.492 350.454C333.555 351.389 332.221 347.782 330.579 345.963C327.077 341.395 326.511 335.893 325.025 330.606C322.127 323.447 316.928 316.828 316.913 308.501Z" fill="black"/>
<path d="M390.687 273.92C391.15 273.078 391.535 272.254 391.841 271.448C393.342 270.802 394.843 270.155 396.344 269.509C396.678 269.871 396.825 270.497 397.158 270.859C394.939 271.967 392.782 272.988 390.687 273.92Z" fill="black"/>
<path d="M434.054 254.229C434.503 254.123 435.348 253.683 435.797 253.578C436.731 255.534 437.495 257.771 438.483 259.956C438.312 260.238 437.521 260.907 437.404 261.418C436.138 259.057 435.096 256.643 434.054 254.229Z" fill="black"/>
<path d="M468.315 239.497C468.551 238.414 471.663 238.093 471.054 239.675C470.632 241.008 467.706 241.079 468.315 239.497Z" fill="black"/>
<path d="M406.327 272.391C406.445 271.874 407.018 271.25 407.363 270.68C409.734 271.59 412.224 271.983 413.905 274.034C413.299 274.177 412.711 274.396 412.142 274.693C410.225 273.676 408.19 273.176 406.327 272.391Z" fill="black"/>
<path d="M241 351C245.381 349.971 245.517 356.009 246.95 358.828C246.788 360.323 246.383 361.875 245.68 363.254C244.408 358.94 243.434 354.798 241 351Z" fill="black"/>
<path d="M405.314 273.697C406.107 274.994 406.955 276.526 407.572 278.112C405.307 285.074 398.133 287.749 392.114 290.153C389.241 289.344 388.073 285.414 389.425 282.871C390.365 284.793 391.305 286.715 392.245 288.638C396.757 287.083 400.762 284.411 404.084 280.91C405.833 279.015 405.117 275.969 405.314 273.697Z" fill="black"/>
<path d="M167.957 396.279C168.793 392.679 167.656 387.842 171.148 385.32C171.224 388.706 170.279 391.844 170.127 395.283C170.321 398.154 170.288 401.079 170.764 404.127C172.151 412.065 177.355 418.863 180.281 426.197C182.319 431.795 186.927 436.06 192.414 437.93C190.732 440.999 187.187 438.186 185.159 436.718C178.176 431.553 176.291 422.516 171.542 415.611C169.44 410.758 168.02 405.744 168.021 400.639C168 399.186 167.979 397.732 167.957 396.279Z" fill="black"/>
<path d="M309.029 323.319C309.733 322.181 310.531 321.101 311.424 320.08C311.587 320.772 312.142 322.101 312.305 322.793C308.651 325.841 305.675 329.703 301.059 331.761C302.886 328.169 306.242 325.921 309.029 323.319Z" fill="black"/>
<path d="M565 203C566.797 202.578 568.713 203.668 570.347 204.568C571.028 206.12 571.803 207.736 572.672 209.415C572.338 210.007 571.668 211.192 571.333 211.784C570.84 210.359 570.422 208.917 570.078 207.457C569.739 207.023 569.004 205.911 568.665 205.477C567.088 204.821 565.793 204.355 565 203Z" fill="black"/>
<path d="M337.751 318.446C336.916 314.894 338.685 310.73 342.418 309.603C343.449 309.028 344.331 309.237 345.065 310.23C342.627 311.553 340.649 313.767 340.077 316.65C340.523 318.544 343.085 320.94 341.581 323.043C339.102 323.126 338.433 320.284 337.751 318.446Z" fill="black"/>
<path d="M259.319 349.278C262.367 348.832 265.234 347.617 267.75 345.944C268.704 348.967 265.377 350.29 263.369 351.032C261.821 351.666 259.572 351.383 259.319 349.278Z" fill="black"/>
<path d="M308.479 331.264C308.351 330.053 308.463 328.863 308.816 327.693C309.39 328.8 309.964 329.906 310.538 331.013C310.106 332.511 309.599 334.027 309.018 335.56C306.325 337.123 303.337 336.429 300.624 335.903C300.297 335.514 300.141 334.852 300.037 334.411C302.491 333.835 305.034 334.634 307.539 334.278C307.778 333.291 308.091 332.286 308.479 331.264Z" fill="black"/>
<path d="M543.123 218.526C546.288 215.532 551.168 212.636 555.211 215.436C556.468 215.64 556.233 216.696 555.997 217.751C552.926 214.973 548.288 215.813 545.811 218.645C543.049 221.294 539.767 224.815 539.798 229.058C539.864 230.709 539.568 232.196 538.912 233.517C536.256 228.39 539.668 222.338 543.123 218.526Z" fill="black"/>
<path d="M213.741 375.181C214.225 375.067 215.25 375.082 215.79 375.211C216.488 377.092 216.517 379.386 215.108 380.995C212.917 382.532 208.848 384.766 207.025 381.36C208.961 380.906 211.309 381.121 213.016 379.697C213.699 378.258 213.599 376.748 213.741 375.181Z" fill="black"/>
<path d="M435.603 275.814C437.084 272.986 438.791 270.106 440.78 267.407C442.116 271.06 438.711 274.836 435.603 275.814Z" fill="black"/>
<path d="M595.148 196.16C598.583 195.111 601.554 197.308 604.363 198.82C606.869 201.126 608.839 204.282 607.677 207.692C605.943 210.753 602.276 211.856 599.915 214.341C598.27 215.693 596.786 217.73 594.353 217.819C592.384 217.799 590.613 216.527 588.948 215.712C587.069 213.982 584.563 211.675 586.924 209.19C587.372 210.05 587.981 211.596 588.196 212.511C589.985 213.859 591.835 215.114 593.744 216.274C597.428 214.202 600.433 211.324 604.064 209.023C605.638 208.412 605.905 206.419 606.567 205.057C605.618 203.109 604.204 201.27 602.199 200.052C600.087 198.377 596.849 198.173 595.148 196.16Z" fill="black"/>
<path d="M230.057 369.243C232.548 368.915 234.982 368.343 237.301 367.284C237.902 367.657 238.804 368.215 239.105 368.401C237.435 369.307 235.683 370.233 233.851 371.177C232.486 370.47 231.221 369.826 230.057 369.243Z" fill="black"/>
<path d="M474.013 256.289C473.959 256.058 474.228 255.016 474.418 254.727C478.107 257.284 478.844 261.513 478.741 265.451C478.56 272.342 479.166 279.292 480.204 285.896C480.996 290.357 480.215 294.699 481.251 299.102C481.908 304.084 486.114 307.743 489.478 311.11C489.289 311.399 488.776 312.498 488.641 313.019C484.301 309.881 480.121 305.238 479.355 299.792C477.966 294.983 478.285 289.772 476.896 284.962C475.043 277.081 476.225 268.977 476.188 261.159C476.239 259.19 474.883 257.797 474.013 256.289Z" fill="black"/>
<path d="M98.5145 436.501C109.676 429.982 121.734 425.201 133.236 419.089C139.402 415.205 146.017 412.19 152.685 409.406C152.74 409.636 152.725 410.614 152.834 411.075C143.809 417.335 133.207 421.044 123.788 426.666C113.389 432.275 102.487 436.785 92.2654 442.109C85.6908 446.332 78.5592 449.226 71.5904 452.811C66.4866 454.984 62.1711 458.434 57.0673 460.607C50.6297 463.337 44.9804 467.343 38.3258 469.15C38.2173 468.689 38.2858 467.942 38.4086 467.426C44.6834 464.004 51.6922 461.626 57.5185 457.335C62.868 454.13 68.7743 452.255 73.8924 449.105C81.7466 444.094 90.5518 441.051 98.5145 436.501Z" fill="black"/>
<path d="M514.475 241.022C514.633 239.562 515.476 238.89 516.609 238.387C520.194 238.73 524.702 239.804 525.415 243.903C525.231 244.184 524.731 245.25 524.362 245.81C523.764 244.686 523.166 243.563 522.568 242.439C520.195 240.863 517.453 239.848 514.475 241.022Z" fill="black"/>
<path d="M157.696 410.918C156.776 408.053 161.179 407.966 162.831 406.63C163.804 409.72 159.633 409.752 157.696 410.918Z" fill="black"/>
<path d="M565.999 218C566.508 218.131 567.754 218.339 568.263 218.47C569.669 221.397 571.923 224.876 569.195 227.521C568.867 224.091 567.405 220.927 565.999 218Z" fill="black"/>
<path d="M514.552 243.909C514.426 242.184 517.736 241.991 517.132 244.181C517.058 246.245 513.683 246.161 514.552 243.909Z" fill="black"/>
<path d="M34 471C38.7484 472.534 40.0905 478.24 42.6737 481.969C45.7189 485.589 46.8462 490.382 49.8378 493.774C51.5833 496.013 53.5597 498.199 55.3052 500.438C54.8432 500.547 54.4886 501.112 54.0266 501.22C51.1798 499.48 49.0423 496.611 47.2432 494.143C44.9072 489.393 41.7546 485.316 39.6496 480.512C37.9204 477.305 35.3209 474.544 34 471Z" fill="black"/>
<path d="M401.56 299.356C405.348 298.244 409.411 297.289 413.2 296.177C414.279 295.702 415.556 296.067 416.783 296.222C411.888 298.704 406.647 299.714 401.455 300.934C401.356 300.513 401.659 299.777 401.56 299.356Z" fill="black"/>
<path d="M283.656 358.788C284.248 357.423 284.731 355.593 286.461 355.187C286.356 356.682 286.252 358.178 286.147 359.674C287.611 361.046 289.182 361.903 290.808 362.992C289.134 364.611 287.021 363.392 285.179 362.353C284.743 361.148 284.236 359.96 283.656 358.788Z" fill="black"/>
<path d="M294.559 353.789C294.024 352.465 293.701 351.09 295.021 350.055C295.59 351.21 296.16 352.366 296.729 353.521C296.206 355.094 295.735 356.574 295.317 357.962C294.682 358.111 293.466 358.638 292.832 358.788C293.355 357.214 294.036 355.362 294.559 353.789Z" fill="black"/>
<path d="M428.137 287.263C432.677 287.172 428.826 292.472 426.229 292.838C424.813 290.241 429.553 289.86 428.137 287.263Z" fill="black"/>
<path d="M547.09 234.382C550.299 233.83 553.463 233.087 556.735 231.712C557.166 234.637 551.785 234.691 549.352 235.263C548.82 235.186 547.667 234.65 547.09 234.382Z" fill="black"/>
<path d="M43.3297 476.402C43.738 476.059 44.2682 475.195 44.6216 474.619C48.5627 483.061 53.6072 490.998 59.8768 497.907C65.4891 495.438 70.9143 492.519 76.1523 489.152C82.1873 486.747 87.2645 482.349 93.2995 479.945C98.5846 477.47 103.077 473.703 108.648 471.408C115.555 468.552 121.614 464.17 128.465 461.08C129.591 460.323 130.532 460.513 131.288 461.65C125.418 464.755 119.945 468.507 113.965 471.144C106.418 474.397 99.774 479.41 92.1724 482.429C87.2066 485.568 82.0903 488.414 76.8235 490.966C71.9899 494.321 66.7048 496.795 61.1881 499.324C61.5296 499.737 62.036 500.851 62.3775 501.264C59.8293 501.863 58.2433 499.277 56.8772 497.625C51.4124 491.02 46.411 484.307 43.3297 476.402Z" fill="black"/>
<path d="M371.568 324.398C373.276 323.502 375.002 322.684 376.747 321.945C377.525 324.235 374.915 324.353 373.717 325.377C372.236 326.219 372.277 328.435 371.926 330.002C371.809 330.524 371.857 331.749 371.795 332.505C372.133 332.921 372.409 334.092 372.801 334.742C372.402 335.083 371.658 336 371.541 336.522C368.958 332.678 370.066 328.213 371.568 324.398Z" fill="black"/>
<path d="M158.928 435.867C161.832 432.467 165.081 429.481 169.417 427.968C168.99 429.303 168.563 430.639 167.214 431.203C159.919 435.882 155.555 443.577 152.472 451.467C151.908 450.117 151.467 448.244 152.307 446.564C153.876 442.737 156.257 439.213 158.928 435.867Z" fill="black"/>
<path d="M239.851 403.284C243.789 401.611 245.408 397.24 246.399 393.267C246.793 393.922 247.527 394.997 247.922 395.652C247.165 398.573 245.613 401.182 243.778 403.609C240.635 405.594 236.814 406.741 234.295 409.328C231.497 410.734 226.925 413.803 224.668 410.343C225.999 409.864 227.31 409.64 228.6 409.669C232.426 407.523 235.914 404.958 239.851 403.284Z" fill="black"/>
<path d="M462.39 295.625C462.721 294.9 463.034 294.097 463.329 293.218C467.167 293.531 469.46 296.88 469.559 300.502C470.004 304.528 467.855 308.192 467.24 311.982C466.852 313.531 466.409 314.85 465.037 315.416C464.429 310.698 466.946 306.462 467.636 301.926C467.361 300.046 466.928 298.204 466.336 296.399C464.984 295.988 463.871 295.52 462.39 295.625Z" fill="black"/>
<path d="M337.228 354.686C337.855 354.295 338.654 353.62 339.281 353.229C339.405 357.831 339.865 362.842 342.713 366.804C345.335 370.819 349.156 373.821 353.149 376.539C353.258 377.001 353.756 378.103 354.092 378.511C349.171 377.961 345.641 374.16 342.502 370.997C339.209 366.165 336.488 360.71 337.228 354.686Z" fill="black"/>
<path d="M644 210C644.467 209.89 645.516 210.157 645.984 210.048C647.662 212.992 649.751 215.583 652.13 218.362C647.696 218.377 645.969 213.133 644 210Z" fill="black"/>
<path d="M161.025 442.729C165.841 437.176 172.596 433.624 179.284 430.824C179.394 431.289 179.558 431.988 179.667 432.453C174.536 435.624 169.35 438.562 164.847 442.322C161.504 445.81 158.954 450.585 159.353 455.404C159.417 456.372 159.231 457.316 158.795 458.238C154.928 453.251 158.133 447.093 161.025 442.729Z" fill="black"/>
<path d="M272.531 387.259C273.619 385.944 275.518 387.086 276.724 386.273C278.15 385.409 279.238 384.094 280.385 383.03C281.901 384.527 280.77 386.647 279.564 387.46C278.094 389.129 275.99 389.094 274.225 389.509C273.587 388.776 273.022 388.026 272.531 387.259Z" fill="black"/>
<path d="M417.023 324.352C417.721 322.577 418.36 320.896 418.942 319.309C422.499 319.198 425.98 320.797 427.467 324.073C428.124 325.852 430.301 328 428.253 329.448C426.712 325.942 424.665 322.315 420.559 321.104C419.804 322.973 419.222 324.56 418.467 326.43C418.133 326.025 417.358 324.757 417.023 324.352Z" fill="black"/>
<path d="M653.598 211.553C667.499 208.046 680.365 201.184 693.212 195.286C709.447 187.792 725.682 180.299 741.917 172.805C746.945 170.184 752.759 168.817 757.841 166.424C758.413 166.769 759.038 167.342 759.378 167.742C734.972 178.755 710.959 190.396 686.267 201.237C675.711 205.397 665.529 211.149 654.259 213.317C654.152 212.862 653.938 211.953 653.598 211.553Z" fill="black"/>
<path d="M527.09 278.797C526.965 279.312 526.949 280.287 527.057 280.748C532.231 279.775 538.795 275.318 536.635 269.266C535.098 271.085 534.709 273.606 532.885 275.249C531.348 277.067 529.076 277.844 527.09 278.797Z" fill="black"/>
<path d="M137.197 459.008C140.291 457.773 143.384 456.537 146.078 454.632C146.593 454.765 147.45 455.327 147.965 455.46C144.754 458.25 141.087 460.13 136.907 460.857C137.08 460.562 137.082 459.544 137.197 459.008Z" fill="black"/>
<path d="M577.405 256.886C576.654 255.878 573.798 254.653 575.639 253.746C576.835 252.28 578.147 254.579 579.226 254.799C580.039 259.349 574.377 262.576 570.23 260.232C572.558 259.21 575.13 258.132 577.405 256.886Z" fill="black"/>
<path d="M756.853 170.245C756.942 168.534 759.305 169.186 760.094 170.45C762.799 174.644 766.829 179.251 766.097 184.494C764.54 184.135 762.767 182.861 761.013 183.756C752.082 187.546 743.312 192.021 734.489 196.268C716.932 206.189 697.977 213.299 680.42 223.22C672.653 226.736 665.171 230.425 657.852 234.802C657.798 234.573 657.35 233.712 657.01 233.309C660.07 230.658 663.577 228.868 667.372 227.252C678.271 220.345 690.746 215.964 701.985 209.459C718.182 201.065 734.881 193.761 751.24 186.053C754.801 184.492 758.202 182.244 762.265 181.772C759.721 178.265 760.453 173.022 756.853 170.245Z" fill="black"/>
<path d="M59.3018 504.544C71.5795 497.198 84.8198 491.857 97.3736 485.685C116.293 476.283 135.323 467.351 154.353 458.418C154.874 458.544 156.026 459.264 156.602 459.624C149.949 462.675 143.528 465.671 136.929 468.956C115.136 480.768 92.3811 490.576 70.1347 501.503C66.7526 502.793 63.2362 505.602 59.3018 504.544Z" fill="black"/>
<path d="M653.744 222.89C654.207 222.782 654.955 222.85 655.418 222.742C655.175 227.935 656.429 233.266 657.805 238.079C661.498 254.821 662.524 272.678 656.31 288.813C654.869 293.065 652.911 297.194 650.095 300.791C649.755 300.382 649.129 299.795 648.788 299.386C651.209 295.148 652.541 290.433 654.677 286.018C654.893 282.787 656.661 279.926 657.395 276.819C657.775 274.283 658.156 271.748 658.25 269.036C658.467 265.805 658.452 262.629 658.437 259.453C658.327 254.832 657.468 250.142 656.895 245.63C655.845 238.05 652.89 230.673 653.744 222.89Z" fill="black"/>
<path d="M323.966 381.538C327.073 382.01 328.532 385.273 328.083 388.264C327.04 389.711 325.998 391.158 323.875 389.974C324.699 388.578 325.796 387.359 326.129 385.838C325.536 384.295 324.559 383.082 323.966 381.538Z" fill="black"/>
<path d="M672.29 220.369C693.723 209.373 715.83 200.204 737.318 189.443C744.363 186.049 751.407 182.655 758.507 179.497C758.618 179.968 758.607 180.963 758.486 181.489C747.309 186.764 736.187 192.275 725.12 198.021C707.26 205.447 689.731 214.284 672.036 222.416C672.158 221.89 672.401 220.84 672.29 220.369Z" fill="black"/>
<path d="M193.707 445.834C194.22 445.96 195.136 445.745 195.594 445.638C195.669 450.066 198.088 454.192 201.029 457.453C203.301 458.895 206.149 459.708 208.65 461.097C212.681 463.855 215.265 468.683 219.817 470.578C223.517 471.931 227.528 470.495 231.419 469.581C232.016 473.146 226.997 472.349 224.818 473.355C220.359 473.909 216.265 471.906 213.324 468.645C210.832 466.266 208.688 463.311 205.098 462.426C202.533 461.793 200.491 460.297 198.393 458.567C195.571 454.783 193.151 450.658 193.707 445.834Z" fill="black"/>
<path d="M391.756 354.139C394.444 352.252 398.315 353.351 400.267 350.382C403.471 347.62 408.088 347.791 411.904 348.651C412.188 348.836 412.812 349.442 413.153 349.864C411.326 350.293 409.617 350.193 407.907 350.093C405.796 350.338 403.63 350.345 401.8 351.779C401.054 352.707 400.421 354.111 399.448 355.093C397.794 355.231 396.084 355.131 394.43 355.268C393.969 356.381 392.311 357.523 393.56 358.736C393.9 359.159 395.093 360.134 395.661 360.502C394.119 361.116 392.577 361.729 391.156 360.808C390.14 358.536 391.29 356.257 391.756 354.139Z" fill="black"/>
<path d="M492 316C494.544 316.371 495.89 318.961 497.539 320.752C500.265 323.987 503.099 327.68 506.415 330.291C510.359 333.481 515.214 334.277 519.64 336.385C522.973 338.024 526.735 338.351 530.068 339.989C536.789 343.495 544.977 345.93 552.389 342.978C553.403 342.417 554.287 342.693 555.041 343.808C552.875 345.043 550.26 345.415 547.699 346.017C541.718 346.696 535.895 344.916 530.608 342.284C526.988 340.471 522.528 340.308 518.729 338.779C513.085 336.715 506.85 335.274 502.816 330.652C498.781 326.031 494.28 321.518 492 316Z" fill="black"/>
<path d="M298.071 409.043C299.988 409.072 301.386 409.941 301.64 412.036C300.763 414.398 297.982 415.769 295.281 415.446C296.93 414.34 298.633 413.461 299.723 412.008C299.337 411.38 298.511 409.898 298.071 409.043Z" fill="black"/>
<path d="M356.139 382.59C357.87 380.122 358.674 383.54 359.691 384.59C360.938 386.616 363.544 386.776 364.791 388.802C363.131 390.48 361.154 388.626 359.893 387.634C358.088 386.512 356.842 384.486 356.139 382.59Z" fill="black"/>
<path d="M620.947 263.155C620.574 261.57 619.624 259.642 620.718 257.952C623.402 260.905 623.707 265.374 620.652 268.242C619.14 270.27 616.624 270.145 614.343 269.964C614.677 268.212 616.669 268.222 618.083 267.89C619.23 266.426 620.902 265.077 620.947 263.155Z" fill="black"/>
<path d="M544.588 294.883C545.643 295.267 546.681 295.576 547.701 295.81C554.085 295.258 559.607 292.065 564.178 287.909C564.742 291.332 561.014 292.919 558.587 294.912C554.912 296.724 550.85 297.915 546.646 297.481C545.644 299.375 544.308 300.875 542.919 302.149C540.351 302.516 536.869 303.097 535.268 300.391C536.815 299.791 538.117 300.196 539.647 300.548C540.831 300.111 542.074 299.582 543.375 298.96C543.703 297.619 544.107 296.26 544.588 294.883Z" fill="black"/>
<path d="M290.011 416.997C292.11 416.504 294.172 416.9 296.233 417.296C296.049 417.56 295.779 418.504 295.595 418.767C293.766 418.316 290.268 419.138 290.011 416.997Z" fill="black"/>
<path d="M342.44 395.821C342.623 394.541 344.111 394.686 345.084 394.705C348.353 400.369 347.547 407.239 346.631 413.64C345.962 418.003 343.696 421.752 340.41 424.256C340.529 423.734 340.657 422.219 340.951 421.408C341.18 421.354 341.695 421.48 341.979 421.661C344.63 413.368 346.775 403.957 342.44 395.821Z" fill="black"/>
<path d="M471.603 340.817C471.154 337.849 471.421 333.688 474.961 332.856C476.32 332.281 477.484 334.056 478.421 334.861C477.124 334.995 475.906 335.11 474.767 335.207C474.352 335.561 473.872 336.698 473.693 336.996C473.878 338.489 473.966 339.92 473.955 341.288C473.426 341.157 472.368 340.893 471.603 340.817Z" fill="black"/>
<path d="M255.916 449.894C255.487 448.069 256.248 445.483 258.898 445.101C258.548 447.109 257.939 449.178 255.916 449.894Z" fill="black"/>
<path d="M498.577 334.246C499.612 334.494 500.393 335.048 500.921 335.906C502.69 346.544 498.808 357.036 493.671 366.349C490.831 371.929 484.625 374.616 480.981 379.894C478.166 383.503 475.802 387.988 471.338 389.774C468.493 391.18 465.034 391.01 461.861 391.019C452.969 391.634 450.816 402.211 443.221 405.224C438.756 407.01 433.471 405.304 429.797 408.378C426.94 410.769 423.347 412.105 419.547 411.524C419.261 411.345 418.81 410.469 418.701 410.003C420.607 409.801 422.745 409.544 424.828 409.055C427.386 407.471 429.835 405.422 433.13 404.893C436.425 404.365 440.225 404.945 443.423 402.966C446.961 401.397 449.259 397.664 451.775 394.862C455.174 390.625 460.619 388.854 465.808 389.109C471.46 389.254 474.872 384.031 478.094 380.081C481.208 375.664 486.093 372.551 490.065 368.671C496.767 358.744 500.211 346.39 498.577 334.246Z" fill="black"/>
<path d="M370 395C374.732 394.379 378.854 396.353 383.221 397.29C386.73 397.692 390.062 398.38 393.626 399.015C397.652 399.54 401.757 398.33 405.241 400.7C403.203 402.406 400.224 401.144 397.627 401.508C393.303 401.789 389.003 400.101 384.515 399.684C381.292 399.46 378.434 397.679 375.156 397.222C373.375 396.905 371.362 396.642 370 395Z" fill="black"/>
<path d="M445.777 371.691C449.694 371.456 452.713 368.464 454.506 365.531C454.792 365.692 455.701 366.392 455.987 366.553C455.002 369.752 451.83 372.095 448.352 373.141C446.941 373.472 443.73 373.542 445.777 371.691Z" fill="black"/>
<path d="M330.602 431.424C332.83 428.261 333.692 423.498 338.099 422.223C336.842 426.358 333.674 429.742 331.606 433.588C330.134 435.054 328.663 436.52 327.191 437.986C324.11 442.79 318.978 445.196 313.974 447.092C313.047 449.47 312.12 451.848 311.193 454.226C311.032 453.543 310.423 452.006 310.028 451.379C310.593 449.567 311.104 447.526 311.956 445.886C319.67 442.873 325.28 437.235 330.602 431.424Z" fill="black"/>
<path d="M596.102 307.895C600.44 308.158 603.753 305.07 604.582 300.513C606.666 300.28 605.887 303.03 605.947 304.298C604.046 308.337 599.718 311.151 595.601 309.809C595.769 309.513 595.991 308.434 596.102 307.895Z" fill="black"/>
<path d="M249.4 477.951C250.089 477.789 250.895 477.093 251.584 476.931C254.566 477.244 257.721 477.262 260.594 476.081C263.351 475.433 265.426 472.919 268.126 472.031C274.614 470.76 280.763 468.048 285.542 463.631C286.807 462.827 288.302 461.969 289.213 463.782C284.031 468.547 278.277 472.939 271.33 474.318C268.517 474.726 266.845 476.892 264.718 478.152C259.777 479.82 254.208 480.875 249.4 477.951Z" fill="black"/>
<path d="M562.582 341.98C566.251 340.872 570.126 341.687 574.069 341.747C580.737 341.905 587.418 341.075 593.714 338.609C598.136 337.57 602.118 334.662 606.649 334.091C611.126 333.285 613.162 328.369 617.584 327.33C624.442 326.211 630.066 321.931 634.484 316.702C635.433 315.164 636.513 313.842 637.726 312.735C638.919 314.674 637.332 316.279 636.498 317.955C633.078 322.21 629.029 325.873 624.184 328.245C619.707 329.05 614.93 330.666 611.523 333.931C608.937 336.511 604.829 335.751 601.846 337.685C597.522 340.18 592.867 341.274 588.09 342.889C582.04 344.311 575.782 343.809 569.58 343.541C567.143 343.621 564.651 343.467 562.582 341.98Z" fill="black"/>
<path d="M17.3565 230.517C14.0764 222.868 25.0078 214.767 31.0609 220.561C36.305 226.064 32.533 234.168 26.2509 236.847C22.6006 236.02 17.6733 235.013 17.3565 230.517Z" fill="#E57F45"/>
<path d="M54.8033 251.474C63.8178 243.642 82.2912 253.461 78.5474 266.265C74.8876 275.323 61.3703 282.474 53.4402 274.4C49.209 267.693 48.3179 256.724 54.8033 251.474Z" fill="#E57F45"/>
</g>
<defs>
<clipPath id="clip0_186_9193">
<rect width="780" height="580" fill="white"/>
</clipPath>
</defs>
</svg>
